<?xml version="1.0" encoding="UTF-8"?>
<svg width="2785px" height="1243px" viewBox="0 0 2785 1243" version="1.1" xmlns="http://www.w3.org/2000/svg" xmlns:xlink="http://www.w3.org/1999/xlink">
    <title>spotrix</title>
    <g id="spotrix" stroke="none" stroke-width="1" fill="none" fill-rule="evenodd">
        <g id="Group-2" transform="translate(317.000000, 176.000000)">
            <text id="S-potrix" font-family="LucidaGrande, Lucida Grande" font-size="600" font-weight="normal" fill="#3F3F3F">
                <tspan x="153.049805" y="650">S </tspan>
                <tspan x="666.038086" y="650" font-size="500">potri</tspan>
                <tspan x="1823.99707" y="650" font-family="MalayalamMN-Bold, Malayalam MN" font-weight="bold">x</tspan>
            </text>
            <g id="Group" fill="#007CAC" fill-rule="nonzero">
                <path d="M505.58126,891 C497.429808,891 491.542649,889.507601 490.636932,888.761402 L58.6099743,828.319262 L65.8557094,828.319262 C45.4770794,828.319262 28.7213169,817.126273 16.4941388,795.486495 C-2.97877435,759.668931 0.191234776,709.67358 0.191234776,707.434982 L0.191234776,101.521185 C0.191234776,70.180816 6.53125302,45.5562405 18.3055726,27.6474583 C38.2313442,-2.20051199 66.7614263,0.0380857844 69.9314355,0.0380857844 L508.75127,55.2568309 C527.318466,56.7492294 563.547142,84.358602 563.547142,179.872107 L563.547142,318.665169 L534.111343,318.665169 L534.111343,178.379708 C534.111343,103.013583 507.392694,100.028786 506.486977,100.028786 L68.5728601,44.8100413 C68.5728601,44.8100413 49.5528054,43.3176428 38.6842027,59.7340264 C32.7970429,68.6884175 30.0798922,82.1200042 30.0798922,99.2825871 L30.0798922,712.658377 C30.0798922,714.896975 28.2684584,747.729742 39.1370611,767.130923 C45.4770794,778.323912 55.4399652,784.293506 68.5728601,784.293506 L496.524092,845.481845 C503.316968,847.720443 517.808439,849.959041 525.959891,838.019853 C531.84705,830.55786 534.564201,816.380074 534.564201,796.232694 L534.564201,657.439632 L564,657.439632 L564,792.501698 C564,827.573063 557.207123,853.690037 544.074228,870.106421 C531.394192,888.015203 516.449863,891 505.58126,891 Z" id="Path"></path>
            </g>
        </g>
    </g>
</svg>