<?xml version="1.0" encoding="UTF-8"?>
<svg width="200px" height="200px" viewBox="0 0 200 200" version="1.1" xmlns="http://www.w3.org/2000/svg" xmlns:xlink="http://www.w3.org/1999/xlink">
    <title>add-sheet</title>
    <g id="Page-1" stroke="none" stroke-width="1" fill="none" fill-rule="evenodd">
        <g id="add-sheet" fill-rule="nonzero">
            <polygon id="Path" fill-opacity="0" fill="#FFFFFF" points="0 0 200 0 200 200 0 200"></polygon>
            <path d="M193.775,18.75 L193.5375,91.85 L181.0375,91.8125 L181.225,31.25 L18.75,31.25 L18.75,168.75 L111.7125,168.75 L111.7125,181.25 L6.25,181.25 L6.25,18.75 L193.775,18.75 Z M42.7,77.4375 C48.325,77.4375 52.4125,78.8125 55.925,82.2 L50.8625,87.2 C48.275,84.7375 45.175,84.3875 42.4625,84.3875 C38.2125,84.3875 36.1375,86.75 36.1375,89.5625 C36.1375,90.6 36.4875,91.6875 37.35,92.5 C38.15,93.25 39.475,93.875 41.15,94.1125 L45.975,94.8 C49.7125,95.3125 52.075,96.35 53.8,97.9625 C55.975,100.025 56.9625,103.025 56.9625,106.6375 C56.9625,114.575 50.3375,119.0625 41.775,119.0625 C35.5625,119.0625 30.85,117.7375 26.825,113.6625 L32,108.4875 C34.5875,111.075 38.1,111.9375 41.8875,111.9375 C46.6125,111.9375 49.1375,110.15 49.1375,106.875 C49.1375,105.4375 48.7375,104.225 47.875,103.425 C47.0625,102.675 46.15,102.275 44.25,101.9875 L39.3,101.3 C35.8,100.775 33.2125,99.675 31.375,97.9 C29.4125,95.95 28.4375,93.3 28.4375,89.85 C28.4375,82.55 33.8375,77.4375 42.6875,77.4375 L42.7,77.4375 Z M108.2,88.4125 C116.525,88.4125 121.2375,94.5125 121.2375,102.7375 L121.2375,106.0625 L102.5,106.0625 C102.5,109.925 104.875,112.7375 109.0625,112.7375 C111.639654,112.908902 114.149378,111.868961 115.85,109.925 L120.3875,114.35 C117.35,117.4 114.4125,119.0625 109.0125,119.0625 C101.9375,119.0625 95.1375,115.8375 95.1375,103.7125 C95.1375,93.9375 100.4375,88.4125 108.2,88.4125 L108.2,88.4125 Z M139.7,88.4125 C148.0375,88.4125 152.75,94.5125 152.75,102.7375 L152.75,106.0625 L134,106.0625 C134,109.925 136.375,112.7375 140.5625,112.7375 C143.139654,112.908902 145.649378,111.868961 147.35,109.925 L151.8875,114.35 C148.8375,117.4 145.9125,119.0625 140.5125,119.0625 C133.4375,119.0625 126.6375,115.8375 126.6375,103.7125 C126.6375,93.9375 131.9375,88.4125 139.7,88.4125 L139.7,88.4125 Z M71.3875,77.7875 L71.3875,91.525 C73.2536021,89.5435725 75.8531691,88.417847 78.575,88.4125 C85.1375,88.4125 88.575,93.0125 88.575,99.3375 L88.575,118.7125 L81.125,118.7125 L81.125,100.4375 C81.125,96.4625 78.5875,95.1375 76.2375,95.1375 C73.8625,95.1375 71.4,96.5125 71.4,100.4375 L71.4,118.7125 L63.925,118.7125 L63.925,77.775 L71.4,77.775 L71.3875,77.7875 Z M167.8125,80.7625 L167.8125,89.625 L173.1125,89.625 L173.1125,95.3125 L167.8125,95.3125 L167.8125,109.6875 C167.8125,111.4125 168.625,112.3875 170.4,112.3875 L173.1125,112.3875 L173.1125,118.7125 L169.025,118.7125 C162.925,118.7125 160.3375,114.4 160.3375,110.15 L160.3375,95.3125 L157.175,95.3125 L157.175,89.625 L160.3375,89.625 L160.3375,80.75 L167.8125,80.75 L167.8125,80.7625 Z M108.1875,94.625 C106.04031,94.5256074 104.053264,95.7575762 103.1875,97.725 C102.743644,98.7427819 102.509808,99.8396886 102.5,100.95 L113.875,100.95 C113.865192,99.8396886 113.631356,98.7427819 113.1875,97.725 C112.321736,95.7575762 110.33469,94.5256074 108.1875,94.625 L108.1875,94.625 Z M139.6875,94.625 C137.54031,94.5256074 135.553264,95.7575762 134.6875,97.725 C134.247939,98.7436769 134.018361,99.8405485 134.0125,100.95 L145.3875,100.95 C145.377692,99.8396886 145.143856,98.7427819 144.7,97.725 C143.834236,95.7575762 141.84719,94.5256074 139.7,94.625 L139.6875,94.625 Z" id="Shape" fill="#017BA8"></path>
            <polygon id="Path" fill="#41A368" points="171.875 125 171.8625 146.875 193.75 146.875 193.75 159.375 171.8625 159.375 171.875 181.25 159.375 181.25 159.3625 159.3625 137.5 159.375 137.5 146.875 159.3625 146.8625 159.375 125"></polygon>
        </g>
    </g>
</svg>