<?xml version="1.0" encoding="UTF-8"?>
<svg width="156px" height="156px" viewBox="0 0 156 156" version="1.1" xmlns="http://www.w3.org/2000/svg" xmlns:xlink="http://www.w3.org/1999/xlink">
    <title>add-field</title>
    <g id="Page-1" stroke="none" stroke-width="1" fill="none" fill-rule="evenodd">
        <g id="Group" fill="#707070" fill-rule="nonzero">
            <path d="M140.039062,0.0390625 C148.322812,0.0390625 155.039062,6.7553125 155.039062,15.0390625 L155.039062,100.039062 L142.539062,100.039062 L142.539062,20.0390625 C142.539062,15.8969269 139.181198,12.5390625 135.039062,12.5390625 L20.0390625,12.5390625 C16.006259,12.5389145 12.6952926,15.7278456 12.5440625,19.7578125 L12.5390625,20.0390625 L12.5390625,135.039062 C12.5389145,139.071866 15.7278456,142.382832 19.7578125,142.534063 L20.0390625,142.539062 L100.039062,142.539062 L100.039062,155.039062 L15.0390625,155.039062 C6.7553125,155.039062 0.0390625,148.322812 0.0390625,140.039062 L0.0390625,15.0390625 C0.0390625,6.7553125 6.7553125,0.0390625 15.0390625,0.0390625 L140.039062,0.0390625 Z" id="Path"></path>
            <path d="M148.789062,92.5390625 C152.955729,92.5390625 155.039062,94.6223958 155.039062,98.7890625 C155.039062,102.955729 152.955729,105.039062 148.789062,105.039062 C144.622396,105.039062 142.539062,102.955729 142.539062,98.7890625 C142.539062,94.6223958 144.622396,92.5390625 148.789062,92.5390625 Z" id="Path"></path>
            <path d="M98.7890625,142.539062 C102.955729,142.539062 105.039062,144.622396 105.039062,148.789062 C105.039062,152.955729 102.955729,155.039062 98.7890625,155.039062 C94.6223958,155.039062 92.5390625,152.955729 92.5390625,148.789062 C92.5390625,144.622396 94.6223958,142.539062 98.7890625,142.539062 Z" id="Path"></path>
            <path d="M93.5503125,53.3640625 C94.0704221,54.2078228 95.0357141,54.6696967 96.0190625,54.5453125 L100.310312,54.0215625 C101.064989,53.9331871 101.7395,53.5090113 102.146085,52.8671116 C102.55267,52.2252119 102.647917,51.4341247 102.405313,50.7140625 L97.5678125,36.7428125 C97.2101526,35.7238877 96.2489347,35.0411675 95.1690625,35.0390625 L43.0253125,35.0390625 C41.9690625,35.0390625 41.0328125,35.6803125 40.6578125,36.6415625 L35.2078125,50.6303125 C34.9250537,51.3652029 35.0026124,52.1900846 35.4173995,52.8593888 C35.8321865,53.5286931 36.5363697,53.9652377 37.3203125,54.0390625 L42.2240625,54.5278125 C43.212002,54.6323266 44.1701932,54.1512775 44.6765625,53.2965625 L44.9490625,52.8240625 C48.3890625,47.0528125 50.2615625,45.6015625 50.9090625,45.2478125 C51.5740625,44.8765625 53.7365625,44.0328125 59.7128125,44.0328125 C60.2753125,44.0328125 60.7353125,44.0328125 61.1265625,44.0490625 L61.1265625,88.7490625 C60.8028125,88.7815625 60.3603125,88.8328125 59.7140625,88.8328125 L54.0090625,88.8328125 C52.6128125,88.8328125 51.4715625,89.9628125 51.4715625,91.3453125 L51.4715625,95.0253125 C51.4715625,96.4090625 52.6128125,97.5390625 54.0090625,97.5390625 L83.6215625,97.5390625 C85.0190625,97.5390625 86.1590625,96.4090625 86.1590625,95.0253125 L86.1590625,91.3465625 C86.1487495,89.9532773 85.0148831,88.8300234 83.6215625,88.8328125 L77.9178125,88.8328125 C77.2878125,88.8328125 76.8103125,88.7828125 76.5040625,88.6978125 L76.5040625,44.1003125 C77.2365625,44.0828125 78.2065625,44.0665625 79.5353125,44.0665625 C85.7165625,44.0665625 87.2490625,45.0615625 87.4028125,45.1790625 C87.9815625,45.6015625 89.6840625,47.2040625 93.2603125,52.9078125 L93.5503125,53.3640625 L93.5503125,53.3640625 Z" id="Path"></path>
            <path d="M135.039063,110.039062 L135.039063,125.039062 L150.039063,125.039062 C152.800486,125.039062 155.039063,127.277639 155.039063,130.039062 C155.039063,132.800486 152.800486,135.039062 150.039063,135.039062 L135.039063,135.039062 L135.039063,150.039062 C135.039063,152.800486 132.800486,155.039062 130.039063,155.039062 C127.277639,155.039062 125.039063,152.800486 125.039063,150.039062 L125.039063,135.039062 L110.039063,135.039062 C107.277639,135.039062 105.039063,132.800486 105.039063,130.039062 C105.039063,127.277639 107.277639,125.039062 110.039063,125.039062 L125.039063,125.039062 L125.039063,110.039062 C125.039063,107.277639 127.277639,105.039062 130.039063,105.039062 C132.800486,105.039062 135.039063,107.277639 135.039063,110.039062 Z" id="Path"></path>
        </g>
    </g>
</svg>