<?xml version="1.0" encoding="UTF-8"?>
<svg width="149px" height="194px" viewBox="0 0 149 194" version="1.1" xmlns="http://www.w3.org/2000/svg" xmlns:xlink="http://www.w3.org/1999/xlink">
    <title>advise</title>
    <g id="Page-1" stroke="none" stroke-width="1" fill="none" fill-rule="evenodd">
        <g id="advise" fill="#DEA41B" fill-rule="nonzero">
            <path d="M98.5,70.5546875 C92.1407806,76.9360034 83.5089054,80.532618 74.5,80.5546875 C70,80.5546875 65.5,79.5546875 61.5,78.0546875 C57.5,76.5546875 53.5,74.0546875 50.5,70.5546875 C49,69.0546875 46,68.5546875 44,70.5546875 C42,72.0546875 42,75.0546875 44,77.0546875 C48,81.0546875 53,84.0546875 58,86.5546875 C63,88.5546875 68.5,89.5546875 74.5,89.5546875 C86.5,89.5546875 97,84.5546875 105,77.0546875 C107,75.5546875 107,72.5546875 105,70.5546875 C103,68.5546875 100,68.5546875 98.5,70.5546875 L98.5,70.5546875 Z M109,168.054688 L40,168.054688 C37.5,168.054688 35.5,170.054688 35.5,172.554688 C35.5,175.054688 37.5,177.054688 40,177.054688 L109,177.054688 C111.5,177.054688 113.5,175.054688 113.5,172.554688 C113.5,170.554688 111.5,168.054688 109,168.054688 L109,168.054688 Z M148.5,74.5546875 C148.5,54.0546875 140,35.5546875 126.5,22.0546875 C113.5,8.5546875 95,0.0546875 74.5,0.0546875 C54,0.0546875 35,8.5546875 22,22.0546875 C8.5,35.5546875 0,54.0546875 0,74.5546875 C0,87.5546875 3.5,100.054688 9.5,111.054688 C15,121.054688 23,129.554688 32.5,136.054688 L32.5,157.054688 C32.5,161.054688 36,164.554688 40,164.554688 L109,164.554688 C113,164.554688 116.5,161.054688 116.5,157.054688 L116.5,136.054688 C126,129.554688 133.5,121.054688 139,111.054688 C145.5,100.054688 148.5,87.5546875 148.5,74.5546875 Z M126,103.554688 C121,112.554688 113.5,120.054688 105,125.054688 C103,126.554688 101.5,129.054688 101.5,131.554688 L101.5,149.054688 L47.5,149.054688 L47.5,131.554688 C47.5,128.554688 45.5,126.054688 43,125.054688 C34.5,119.554688 27.5,112.554688 22.5,103.554688 C17.5,95.0546875 15,85.0546875 15,74.5546875 C15,58.0546875 21.5,43.5546875 32.5,32.5546875 C43,21.5546875 58,15.0546875 74.5,15.0546875 C91,15.0546875 105.5,21.5546875 116.5,32.5546875 C127.5,43.0546875 134,58.0546875 134,74.5546875 C133.5,85.0546875 131,95.0546875 126,103.554688 L126,103.554688 Z M94.5,184.054688 L54.5,184.054688 C52,184.054688 50,186.054688 50,188.554688 C50,191.054688 52,193.054688 54.5,193.054688 L94.5,193.054688 C97,193.054688 99,191.054688 99,188.554688 C99,186.054688 97,184.054688 94.5,184.054688 Z" id="Shape"></path>
        </g>
    </g>
</svg>