<?xml version="1.0" encoding="UTF-8"?>
<svg width="96px" height="121px" viewBox="0 0 96 121" version="1.1" xmlns="http://www.w3.org/2000/svg" xmlns:xlink="http://www.w3.org/1999/xlink">
    <title>aggregation</title>
    <g id="Page-1" stroke="none" stroke-width="1" fill="none" fill-rule="evenodd">
        <g id="aggregation" fill="#707070" fill-rule="nonzero">
            <path d="M79.3912645,120.046893 L2.58797762,120.046893 C1.22099327,120.046893 0.106171001,118.815937 0.106171001,117.306558 L0.079627614,108.074437 L0.079627614,107.83997 L0.17252947,107.561541 C0.252159632,107.458962 0.610495362,107.209841 0.716668911,107.151225 L44.6061574,62.0896798 C45.6944362,60.9759637 45.6944362,59.0709227 44.6194291,57.9572064 L0.597223668,12.1482994 C0.212344551,11.9577953 0.106171001,11.8259079 0.106171001,11.3276664 L0.106171001,2.65240317 C0.106171001,1.31887444 1.30062343,0 2.77378133,0 L92.7160442,0 C94.1095719,0 95.2376658,1.24560363 95.2376658,2.78429062 L95.2376658,27.9454849 C95.2376658,29.0885094 94.4015491,30.0117216 93.3663571,30.0117216 L92.2117198,29.9677591 C90.9110939,29.9677591 89.7962716,28.956622 89.5573813,27.5498225 L87.1684765,7.76670528 C86.9428577,6.44783083 85.6289601,5.78839355 84.4212361,5.78839355 L7.65776429,5.86166436 C6.88800605,5.86166436 6.51639873,6.90210973 7.07380976,7.4882762 L53.9228858,56.8581444 C55.515489,58.5287188 55.515489,61.3276635 53.9228858,62.9982379 L7.48523227,111.137156 C6.75528911,111.899173 7.24634178,113.276664 8.2549905,113.276664 L84.7795719,113.056851 C86.2261864,113.056851 87.4737256,111.928481 87.752431,110.345832 L89.5573813,93.0539218 C89.8228151,91.5445433 91.0172675,90.4601353 92.3975235,90.4601354 L94.0697568,90.3282479 C95.4234695,90.3282479 95.224394,91.236806 95.2243942,92.7315304 L95.2243942,117.057437 C95.2258922,117.850794 94.9411275,118.612134 94.4330617,119.173123 C93.9249958,119.734113 93.2354808,120.04854 92.5169687,120.046893 L79.3912645,120.046893 Z" id="Path"></path>
        </g>
    </g>
</svg>