<?xml version="1.0" encoding="UTF-8"?>
<svg width="200px" height="200px" viewBox="0 0 200 200" version="1.1" xmlns="http://www.w3.org/2000/svg" xmlns:xlink="http://www.w3.org/1999/xlink">
    <title>area</title>
    <g id="Page-1" stroke="none" stroke-width="1" fill="none" fill-rule="evenodd">
        <g id="area" fill="#017BA8" fill-rule="nonzero">
            <path d="M199.707868,99.8138473 C199.707868,44.6886557 155.019212,0 99.8940209,0 C44.7678312,0 0.0801736328,44.6886557 0.0801736328,99.8138473 C0.0801736328,100.160201 0.0901550781,100.504559 0.0931494141,100.850913 C0.091153125,101.084478 0.0801736328,101.317044 0.0801736328,101.551606 C0.0801736328,104.024993 0.200948437,106.468436 0.378616992,108.896907 L0.496397266,108.896907 C5.08583789,159.76404 47.831118,199.627694 99.8940207,199.627694 C130.573803,199.627694 158.016622,185.781517 176.326474,164.001138 C179.316897,160.863989 182.518925,156.164753 184.509213,152.768088 C192.620087,139.835207 197.84634,124.912039 199.291644,108.895909 L199.409425,108.895909 L199.409425,108.896907 C199.586095,106.468436 199.707868,104.024993 199.707868,101.551606 C199.707868,101.312053 199.696888,101.075494 199.694892,100.836939 C199.697887,100.495576 199.707868,100.155211 199.707868,99.8138473 Z M162.412424,40.4515578 C153.505036,43.4509639 144.040687,45.7886043 134.189061,47.4225568 C131.586913,36.6576334 128.148327,26.4376936 123.939177,16.9753408 C138.803455,21.2962824 152.023799,29.5149547 162.412424,40.4515578 Z M91.1433408,14.0008883 C94.0219723,13.7094318 96.9405291,13.5597111 99.8950189,13.5597111 C102.417315,13.5597111 104.914657,13.6754951 107.384052,13.8890969 C113.00956,24.4733572 117.467247,36.3981176 120.669275,49.2002416 C113.992727,49.8470354 107.18143,50.1784174 100.282297,50.1784174 C92.7223959,50.1784174 85.2682979,49.7661861 77.9749,48.9906326 C81.1619563,36.3152721 85.5777207,24.4983107 91.1433408,14.0008883 Z M100.282297,63.7381283 C108.137646,63.7381283 115.89418,63.3268953 123.496003,62.5363695 C125.336571,73.0876914 126.349681,84.0961605 126.508385,95.3371959 L72.0798941,95.3371959 C72.2395963,84.0193037 73.2626883,72.9359742 75.128209,62.3187752 C83.3548664,63.2460461 91.7621867,63.7381283 100.282297,63.7381283 Z M126.278813,108.895909 L126.278813,108.895909 C125.811685,118.540921 124.704749,127.963348 122.987951,137.030438 C116.10379,136.387637 109.103845,136.044278 102.020056,136.044278 C93.1016887,136.044278 84.3050943,136.57928 75.7101238,137.591392 C73.9324393,128.351624 72.7865762,118.740549 72.309466,108.895909 L126.278813,108.895909 Z M74.4594564,17.3885703 C70.3760719,26.6403158 67.0283154,36.6097229 64.4730811,47.0981619 C55.0915775,45.4472408 46.0704021,43.1525205 37.5622697,40.2529283 C47.5975537,29.7565041 60.248959,21.7823758 74.4594564,17.3885703 Z M28.5171389,51.4390662 C38.9207361,55.307851 50.0669484,58.3202328 61.7172207,60.3883758 C59.7578748,71.6593555 58.6798854,83.3864844 58.5201832,95.3371963 L13.7546707,95.3371963 C14.5871184,79.1274273 19.9181758,64.0864787 28.5171389,51.4390662 Z M28.9463383,148.806476 C20.928292,137.231064 15.6641096,123.610467 14.1179932,108.895909 L58.7407717,108.895909 L58.7407717,108.896907 C59.2218744,119.400318 60.4136518,129.682143 62.2931465,139.585673 C50.5720064,141.728676 39.3778834,144.834883 28.9463383,148.806476 Z M38.1012645,159.925738 C46.6772701,156.931323 55.7912727,154.560744 65.279577,152.845942 C68.0444205,163.425212 71.6247432,173.441532 75.9666455,182.689285 C61.3978164,178.476142 48.4060459,170.515988 38.1012645,159.925738 Z M105.738122,185.865361 C103.805726,185.995119 101.858357,186.067983 99.8940209,186.067983 C97.5044773,186.067983 95.1388893,185.966173 92.7982545,185.77453 C86.9252078,175.378918 82.2129961,163.607871 78.774409,150.892585 C86.3672482,150.051155 94.1357602,149.603989 102.020056,149.603989 C108.077758,149.603989 114.0606,149.873486 119.950615,150.372555 C116.490069,163.323402 111.714975,175.306054 105.738122,185.865361 Z M122.441969,183.071571 C126.985495,173.465487 130.706555,163.02396 133.539272,151.976564 C143.720285,153.535656 153.500046,155.851337 162.707873,158.859727 C151.928976,170.319354 138.058844,178.837468 122.441969,183.071571 Z M171.683134,147.571779 C160.6557,143.629132 148.824765,140.645696 136.469807,138.704317 C138.25348,129.073279 139.381377,119.086903 139.847508,108.896907 L185.670049,108.896907 C184.177832,123.089438 179.228063,136.266862 171.683134,147.571779 Z M140.067098,95.3371961 C139.909392,83.4972775 138.847373,71.8789457 136.921964,60.7047855 C149.033376,58.6655887 160.619767,55.6212664 171.413637,51.6486752 C179.928756,64.2521697 185.203918,79.2172598 186.031375,95.3371961 L140.067098,95.3371961 Z" id="Shape"></path>
        </g>
    </g>
</svg>