<?xml version="1.0" encoding="UTF-8"?>
<svg width="200px" height="192px" viewBox="0 0 200 192" version="1.1" xmlns="http://www.w3.org/2000/svg" xmlns:xlink="http://www.w3.org/1999/xlink">
    <title>Group</title>
    <g id="Page-1" stroke="none" stroke-width="1" fill="none" fill-rule="evenodd">
        <g id="Group" transform="translate(100.000000, 96.000000) rotate(90.000000) translate(-100.000000, -96.000000) translate(4.000000, -4.000000)" fill-rule="nonzero">
            <path d="M40.2257338,69.5652174 L12.0518207,69.5652174 C5.2659034,69.754873 -0.0942494772,75.3869177 0.0518207031,82.1739131 L0.0518207031,187.391304 C-0.0942494772,194.1783 5.2659034,199.810344 12.0518207,200 L40.2257338,200 C47.0116511,199.810344 52.371804,194.1783 52.2257338,187.391304 L52.2257338,82.1739131 C52.371804,75.3869177 47.0116511,69.754873 40.2257338,69.5652174 Z" id="Path" fill="#41C3F1"></path>
            <path d="M179.356169,113.043478 L151.182255,113.043478 C144.444646,113.186164 139.085154,118.73984 139.182255,125.478261 L139.182255,187.565217 C139.085154,194.303638 144.444646,199.857314 151.182255,200 L179.269212,200 C182.521102,199.954201 185.62157,198.618302 187.888384,196.286256 C190.155198,193.95421 191.402622,190.817098 191.356169,187.565217 L191.356169,125.478261 C191.45327,118.73984 186.093778,113.186164 179.356169,113.043478 Z" id="Path" fill="#F6C253"></path>
            <path d="M109.790951,0 L81.6170381,0 C74.7204675,0.328935332 69.3711151,6.14344887 69.6170381,13.0434783 L69.6170381,186.956522 C69.3711151,193.856551 74.7204675,199.671065 81.6170381,200 L109.703995,200 C116.635021,199.717287 122.035914,193.888985 121.790951,186.956522 L121.790951,13.0434783 C122.036874,6.14344887 116.687522,0.328935332 109.790951,0 Z" id="Path" fill="#EC5044"></path>
        </g>
    </g>
</svg>