<?xml version="1.0" encoding="UTF-8"?>
<svg width="170px" height="188px" viewBox="0 0 170 188" version="1.1" xmlns="http://www.w3.org/2000/svg" xmlns:xlink="http://www.w3.org/1999/xlink">
    <title>clean</title>
    <g id="Page-1" stroke="none" stroke-width="1" fill="none" fill-rule="evenodd">
        <g id="clean" fill="#707070" fill-rule="nonzero">
            <path d="M55.7499999,125.484375 C59.7965144,126.978024 61.8668683,131.468454 60.375,135.515625 L53.109375,155.226563 C51.7083037,159.023562 52.2537605,163.265848 54.5697887,166.584917 C56.8858169,169.903987 60.6793183,171.879805 64.7265624,171.875 L64.7265624,187.5 C45.2421874,187.5 31.7187499,168.09375 38.4609375,149.820313 L45.7265625,130.109375 C47.2202115,126.062861 51.7106412,123.992507 55.7578125,125.484375 L55.7499999,125.484375 Z M94.4921874,125.484375 C98.5387019,126.978024 100.609056,131.468454 99.1171875,135.515625 L91.8046875,155.359375 C90.4178065,159.124578 90.9589726,163.329958 93.2539283,166.621367 C95.548884,169.912775 99.3078081,171.874553 103.320313,171.875 L103.320313,187.5 C83.90625,187.5 70.4296875,168.164063 77.1484374,149.953125 L84.4609374,130.109375 C85.9545864,126.062861 90.4450162,123.992507 94.4921874,125.484375 L94.4921874,125.484375 Z" id="Shape"></path>
            <path d="M90.1953126,10.1406249 C92.4819589,4.04045525 98.3134629,-1.22131496e-07 104.828125,-1.22131496e-07 L123.296875,-1.22131496e-07 C128.421533,-1.22131496e-07 133.220749,2.51172056 136.140268,6.72343433 C139.059787,10.9351481 139.728443,16.3107706 137.929688,21.1093749 L122.40625,62.4999999 L130.046875,62.4999999 C134.3616,62.4999999 137.859375,65.9977754 137.859375,70.3125 C137.859375,74.6272246 134.3616,78.1250001 130.046875,78.1250001 L61.7265624,78.1250001 L58.5859374,85.9374999 L161.914063,85.9374999 C166.228787,85.9374999 169.726563,89.4352754 169.726563,93.75 C169.726563,98.0647246 166.228787,101.5625 161.914063,101.5625 L156.859375,101.5625 L137.179688,156.304687 C136.230009,158.948529 136.77291,161.898689 138.601562,164.03125 L147.65625,174.609375 C149.638511,176.926895 150.091056,180.186012 148.815212,182.955937 C147.539368,185.725861 144.768383,187.5 141.71875,187.5 L31.4453124,187.5 C9.71093738,187.5 -5.390625,165.859375 2.12499994,145.453125 L18.2890626,101.5625 L8.39843756,101.5625 C5.60730004,101.5625 3.02818256,100.073446 1.63261377,97.6562501 C0.237044972,95.2390541 0.237044972,92.2609459 1.63261377,89.8437499 C3.02818256,87.4265539 5.60730004,85.9374998 8.39843756,85.9374999 L41.7421875,85.9374999 L47.2265625,72.2968749 C49.6063831,66.3771103 55.3463462,62.4989239 61.7265624,62.4999999 L70.5624999,62.4999999 L90.1953126,10.1406249 Z M87.2499999,62.4999999 L105.71875,62.4999999 L123.296875,15.6249999 L104.828125,15.6249999 L87.2499999,62.4999999 L87.2499999,62.4999999 Z M34.9374999,101.5625 L16.7968749,150.851563 C15.0328953,155.642733 15.7209642,160.993512 18.6397252,165.182518 C21.5584862,169.371524 26.3397358,171.87031 31.4453124,171.875 L124.976563,171.875 C120.899102,165.705646 119.972437,157.973784 122.476562,151.015625 L140.25,101.5625 L34.9453125,101.5625 L34.9374999,101.5625 Z" id="Shape"></path>
        </g>
    </g>
</svg>