<?xml version="1.0" standalone="no"?>
<svg class="icon" width="200px" height="200.00px" viewBox="0 0 1024 1024" version="1.1"
     xmlns="http://www.w3.org/2000/svg">
    <path fill="#707070"
          d="M654.242377 1023.926857a86.454857 86.454857 0 0 1-85.065143-89.453714v-89.526857h66.633143v89.526857a17.188571 17.188571 0 0 0 18.432 19.456h285.257143a21.284571 21.284571 0 0 0 18.432-19.456V89.965714a17.188571 17.188571 0 0 0-18.432-19.456h-285.257143a21.284571 21.284571 0 0 0-18.432 19.456v92.233143h-66.633143V89.965714A86.454857 86.454857 0 0 1 654.242377 0.438857h284.745143A86.454857 86.454857 0 0 1 1024.052663 89.965714v844.507429A86.454857 86.454857 0 0 1 938.98752 1024H654.242377z m-576.365714-0.438857A86.893714 86.893714 0 0 1 0.052663 934.473143V89.453714A86.454857 86.454857 0 0 1 85.117806 0h284.818285a86.454857 86.454857 0 0 1 84.845715 89.526857v89.526857h-66.633143V89.526857a21.065143 21.065143 0 0 0-5.12-14.043428 19.017143 19.017143 0 0 0-13.312-5.924572H85.117806a18.870857 18.870857 0 0 0-18.432 19.456v844.141714a17.188571 17.188571 0 0 0 18.432 19.382858h284.818285a18.870857 18.870857 0 0 0 18.432-19.382858v-89.307428h65.828572v89.307428a86.454857 86.454857 0 0 1-85.065143 89.526858H77.949806v0.512z m615.277714-381.220571a30.573714 30.573714 0 0 1-21.942857-9.142858L543.138377 498.322286l126.537143-133.193143a31.012571 31.012571 0 0 1 45.056-1.097143l1.024 1.097143a33.938286 33.938286 0 0 1 9.728 23.698286 35.401143 35.401143 0 0 1-8.704 23.698285l-48.128 50.688h238.226286v70.070857H668.505234l47.104 49.590858a35.181714 35.181714 0 0 1 1.024 47.469714l-1.024 1.097143v0.512a29.257143 29.257143 0 0 1-22.454857 10.24z m-362.203428 0a30.573714 30.573714 0 0 1-21.942858-9.142858l-1.024-1.097142a35.84 35.84 0 0 1-1.024-47.981715l48.128-50.688H116.349806v-69.558857h238.153143l-47.104-49.590857a35.84 35.84 0 0 1-1.024-47.981714l1.024-1.097143a31.012571 31.012571 0 0 1 45.056-1.097143L480.528091 498.834286l-126.537142 133.193143a31.012571 31.012571 0 0 1-23.04 10.24z"/>
</svg>