<?xml version="1.0" encoding="UTF-8"?>
<svg width="167px" height="143px" viewBox="0 0 167 143" version="1.1" xmlns="http://www.w3.org/2000/svg" xmlns:xlink="http://www.w3.org/1999/xlink">
    <title>comment</title>
    <g id="Page-1" stroke="none" stroke-width="1" fill="none" fill-rule="evenodd">
        <g id="comment" fill="#707070" fill-rule="nonzero">
            <path d="M89.8817709,116.315104 C92.0480779,114.222817 92.9168796,111.124454 92.1542512,108.210874 C91.3916228,105.297294 89.1162471,103.021919 86.2026671,102.25929 C83.2890872,101.496662 80.1907243,102.365464 78.0984375,104.531771 L60.4234375,122.198438 L42.7401041,104.531771 C40.6478177,102.365462 37.549454,101.496659 34.635873,102.259287 C31.722292,103.021915 29.4469155,105.297292 28.6842873,108.210873 C27.9216591,111.124454 28.7904622,114.222818 30.9567709,116.315104 L54.4567709,139.815104 L54.5317709,139.881771 C57.7859363,143.134954 63.0609387,143.134954 66.3151041,139.881771 L89.8817709,116.315104 Z" id="Path"></path>
            <path d="M0.0651041016,16.7317709 C0.0651041016,12.311496 1.82105139,8.07226407 4.94665773,4.94665773 C8.07226407,1.82105139 12.311496,0.0651041016 16.7317709,0.0651041016 L150.065104,0.0651041016 C154.485379,0.0651041016 158.724611,1.82105139 161.850217,4.94665773 C164.975824,8.07226407 166.731771,12.311496 166.731771,16.7317709 L166.731771,100.065104 C166.731771,104.485379 164.975824,108.724611 161.850217,111.850217 C158.724611,114.975824 154.485379,116.731771 150.065104,116.731771 L65.9567709,116.731771 L77.7401041,104.948438 C80.864983,101.822615 85.1035239,100.066048 89.5234375,100.065104 L141.731771,100.065104 C146.334144,100.065104 150.065104,96.3341437 150.065104,91.7317709 L150.065104,25.0651041 C150.065104,20.4627313 146.334144,16.731771 141.731771,16.7317709 L25.0651041,16.7317709 C20.4627313,16.731771 16.731771,20.4627313 16.7317709,25.0651041 L16.7317709,91.7317709 C16.731771,96.3341437 20.4627313,100.065104 25.0651041,100.065104 L31.4401041,100.065104 C35.8600177,100.066048 40.0985586,101.822615 43.2234375,104.948437 L55.0067709,116.731771 L16.7317709,116.731771 C12.311496,116.731771 8.07226407,114.975824 4.94665773,111.850217 C1.82105139,108.724611 0.0651041016,104.485379 0.0651041016,100.065104 L0.0651041016,16.7317709 Z" id="Path"></path>
            <path d="M41.7317709,33.3984375 L83.3984375,33.3984375 C88.9539931,33.3984375 91.7317709,36.1762153 91.7317709,41.7317709 L91.7317709,41.7317709 C91.7317709,47.2873265 88.9539931,50.0651041 83.3984375,50.0651041 L41.7317709,50.0651041 C36.1762153,50.0651041 33.3984375,47.2873264 33.3984375,41.7317709 L33.3984375,41.7317709 C33.3984375,36.1762153 36.1762153,33.3984375 41.7317709,33.3984375 Z" id="Path"></path>
            <path d="M41.7317709,66.7317709 L108.398438,66.7317709 C113.953993,66.7317709 116.731771,69.5095486 116.731771,75.0651041 L116.731771,75.0651041 C116.731771,80.6206597 113.953993,83.3984375 108.398438,83.3984375 L41.7317709,83.3984375 C36.1762153,83.3984375 33.3984375,80.6206597 33.3984375,75.0651041 L33.3984375,75.0651041 C33.3984375,69.5095485 36.1762153,66.7317709 41.7317709,66.7317709 Z" id="Path"></path>
        </g>
    </g>
</svg>