<?xml version="1.0" encoding="UTF-8"?>
<svg width="16px" height="16px" viewBox="0 0 16 16" version="1.1" xmlns="http://www.w3.org/2000/svg" xmlns:xlink="http://www.w3.org/1999/xlink">
    <title>Slice</title>
    <g id="Page-1" stroke="none" stroke-width="1" fill="none" fill-rule="evenodd">
        <g id="Group" transform="translate(1.000000, 1.000000)" fill="#707070" fill-rule="nonzero">
            <path d="M0.00235778443,10.415842 C0.00235778443,10.6868912 0.161236306,10.933099 0.408944611,11.0463976 L6.6830963,13.915842 C6.69357534,13.9207031 6.70545159,13.9186198 6.71593064,13.9234809 C6.79976298,13.9568142 6.88638973,13.9797309 6.97511228,13.9797309 C7.06383482,13.9797309 7.14976298,13.9575087 7.2321981,13.9241753 C7.24337575,13.9200087 7.25525199,13.9213976 7.26642964,13.9165365 L13.5405813,11.053342 C13.7885853,10.9401476 13.9478668,10.6929253 13.9478668,10.422092 L13.9478668,3.47695313 L13.9471682,3.47278646 C13.9465893,3.41095022 13.9374208,3.3494898 13.9199226,3.29014757 C13.9143338,3.27070313 13.905252,3.25334202 13.898266,3.23459201 C13.8840915,3.1954397 13.8665621,3.15756919 13.8458708,3.12139757 C13.8328641,3.10150879 13.818875,3.08227228 13.8039546,3.06375868 C13.7659489,3.01314439 13.7210402,2.96803558 13.6705215,2.92973091 C13.6558508,2.91792536 13.6446731,2.90473091 13.6286053,2.89431424 C13.6104416,2.88181424 13.5887849,2.87625869 13.5699226,2.86584201 C13.5566492,2.85959201 13.5475674,2.84986979 13.5335953,2.84361979 L7.25944361,0.0658420085 C7.0784096,-0.0140547339 6.87181495,-0.0140547339 6.69078094,0.0658420085 L0.416629236,2.84361979 C0.402657186,2.84986979 0.392178144,2.85959201 0.379603293,2.86653646 C0.36004241,2.87695313 0.339782934,2.88320313 0.321619267,2.89431424 C0.30625,2.90473091 0.294373758,2.91792536 0.279703099,2.92973091 C0.227675088,2.96629734 0.182511421,3.01166228 0.146269955,3.06375868 C0.131349596,3.08227228 0.117360418,3.10150879 0.104353787,3.12139757 C0.0833957031,3.15750869 0.0666292361,3.19570313 0.0519585774,3.23459201 C0.044972544,3.25403646 0.0351921103,3.27070313 0.0303019017,3.29014757 C0.0124672652,3.34941587 0.00329168406,3.41092391 0.00305639268,3.47278646 L0.00235778443,3.47695313 L0.00235778443,10.415842 L0.00235778443,10.415842 Z M1.39956337,4.55056424 L6.27650948,6.72695312 L6.27650948,12.2019531 L1.39956337,9.97139757 L1.39956337,4.55056424 Z M12.5506612,9.97625868 L7.67371508,12.2019531 L7.67371508,6.72625868 L12.5506612,4.54986979 L12.5506612,9.97625868 Z M6.97511228,1.46028646 L11.5376871,3.48042534 L9.01992265,4.60403646 L6.97511228,5.51653646 L4.9303019,4.60403646 L2.41253743,3.48042534 L6.97511228,1.46028646 Z" id="Shape"></path>
        </g>
    </g>
</svg>