<?xml version="1.0" encoding="UTF-8"?>
<svg width="200px" height="1001px" viewBox="0 0 200 1001" version="1.1" xmlns="http://www.w3.org/2000/svg" xmlns:xlink="http://www.w3.org/1999/xlink">
    <title>cube-adv</title>
    <g id="cube-adv" stroke="none" stroke-width="1" fill="none" fill-rule="evenodd">
        <g id="Group" fill-rule="nonzero">
            <path d="M-1.48029737e-14,50.2617801 L93,90.7416277 L93,200 C88.4588885,197.996047 63.0888308,186.401749 16.8898267,165.20279 C6.54055078,160.376796 -0.0537724674,149.976172 -1.48029737e-14,138.564531 L-1.48029737e-14,50.2617801 Z" id="Path" fill="#EC5044"></path>
            <path d="M200,50.2617801 L200,139.205219 C200,150.844022 193.273447,161.376419 182.854446,166.060678 C136.154994,187.024891 110.536845,198.31884 106,200 L106,90.8970057 L200,50.2617801 Z" id="Path" fill="#41C3F1"></path>
            <path d="M194,33.5794765 L101.271387,73.2984293 L8,33.608342 L79.6747043,4.16551376 C93.1824133,-1.37849951 108.295953,-1.38885306 121.811089,4.13664818 L194,33.5794765 Z" id="Path" fill="#F6C253"></path>
        </g>
        <text id="智" transform="translate(100.000000, 302.000000) rotate(90.000000) translate(-100.000000, -302.000000) " font-family="PingFangSC-Regular, PingFang SC" font-size="160" font-weight="normal" fill="#000000" fill-opacity="0.5">
            <tspan x="36" y="360">智</tspan>
        </text>
        <text id="能" transform="translate(100.000000, 501.000000) rotate(90.000000) translate(-100.000000, -501.000000) " font-family="PingFangSC-Regular, PingFang SC" font-size="160" font-weight="normal" fill="#000000" fill-opacity="0.5">
            <tspan x="36" y="559">能</tspan>
        </text>
        <text id="构" transform="translate(100.000000, 700.000000) rotate(90.000000) translate(-100.000000, -700.000000) " font-family="PingFangSC-Regular, PingFang SC" font-size="160" font-weight="normal" fill="#000000" fill-opacity="0.5">
            <tspan x="36" y="758">构</tspan>
        </text>
        <text id="建" transform="translate(100.000000, 899.000000) rotate(90.000000) translate(-100.000000, -899.000000) " font-family="PingFangSC-Regular, PingFang SC" font-size="160" font-weight="normal" fill="#000000" fill-opacity="0.5">
            <tspan x="36" y="957">建</tspan>
        </text>
    </g>
</svg>