<?xml version="1.0" encoding="UTF-8"?>
<svg width="139px" height="139px" viewBox="0 0 139 139" version="1.1" xmlns="http://www.w3.org/2000/svg" xmlns:xlink="http://www.w3.org/1999/xlink">
    <title>date</title>
    <g id="Page-1" stroke="none" stroke-width="1" fill="none" fill-rule="evenodd">
        <g id="date" fill="#017BA8" fill-rule="nonzero">
            <path d="M121.351063,138.55425 L17.4600625,138.55425 C7.9070625,138.53525 0.1650625,130.79425 0.1460625,121.23925 L0.1460625,28.89225 C0.1650625,19.33725 7.9060625,11.59725 17.4600625,11.57825 L121.351063,11.57825 C130.906062,11.59725 138.646062,19.33725 138.665063,28.89225 L138.665063,121.23825 C138.646062,130.79425 130.905063,138.53525 121.351063,138.55425 Z M17.4600625,23.12025 C14.2726655,23.1218022 11.6890625,25.7058529 11.6890625,28.89325 L11.6890625,121.23925 C11.6890625,124.427038 14.2732749,127.01125 17.4610625,127.01125 L121.351062,127.01125 C124.53846,127.01125 127.122062,124.426647 127.122062,121.23925 L127.122062,28.89225 C127.122062,25.7048529 124.53846,23.12025 121.351062,23.12025 L17.4600625,23.12025 L17.4600625,23.12025 Z M40.5480625,34.6642501 C37.3602749,34.6642501 34.7760625,32.0800376 34.7760625,28.89225 L34.7760625,5.80725 C34.7903796,2.62994484 37.3707253,0.0621164133 40.5480625,0.0632496248 C43.7250096,0.0626671493 46.304747,2.63033512 46.3190626,5.80725 L46.3190626,28.89325 C46.3193278,30.4238957 45.7113987,31.8919263 44.6290687,32.9742562 C43.5467388,34.0565862 42.0787082,34.6642501 40.5480625,34.6642501 Z M98.2640625,34.6642501 C96.7332435,34.6642501 95.2650613,34.056449 94.1827026,32.9739027 C93.1003439,31.8913565 92.4925319,30.4230689 92.4930622,28.89225 L92.4930622,5.80725 C92.4930622,2.62001471 95.0768272,0.03625 98.2640625,0.03625 C101.451298,0.03625 104.035063,2.62001471 104.035063,5.80725 L104.035063,28.89325 C104.035328,30.4238957 103.427399,31.8919263 102.345069,32.9742562 C101.262739,34.0565862 99.7947082,34.6642501 98.2640625,34.6642501 L98.2640625,34.6642501 Z M127.122063,57.7512501 L11.6890625,57.7512501 C10.1582435,57.7515154 8.6900613,57.143449 7.60770258,56.0609027 C6.52534386,54.9783565 5.91806215,53.5100689 5.91806215,51.97925 C5.91806215,50.4486043 6.52572633,48.9805737 7.60805629,47.8982438 C8.69038624,46.8159138 10.1584168,46.2079847 11.6890625,46.2082499 L127.122063,46.2082499 C128.652708,46.2079847 130.120739,46.8159138 131.203069,47.8982438 C132.285399,48.9805737 132.893063,50.4486043 132.893063,51.97925 C132.893063,53.5100689 132.285781,54.9783565 131.203422,56.0609027 C130.121064,57.143449 128.652881,57.7515154 127.122063,57.7512501 Z M29.0040625,75.06625 L40.5470625,75.06625 L40.5470625,86.60925 L29.0040625,86.60925 L29.0040625,75.06625 Z M52.0910625,75.06625 L63.6340625,75.06625 L63.6340625,86.60925 L52.0910625,86.60925 L52.0910625,75.06625 L52.0910625,75.06625 Z M75.1770625,75.06625 L86.7200625,75.06625 L86.7200625,86.60925 L75.1770625,86.60925 L75.1770625,75.06625 Z M98.2640625,75.06625 L109.807062,75.06625 L109.807062,86.60925 L98.2640625,86.60925 L98.2640625,75.06625 Z M29.0040625,98.15225 L40.5470625,98.15225 L40.5470625,109.69425 L29.0040625,109.69425 L29.0040625,98.15225 L29.0040625,98.15225 Z M52.0910625,98.15225 L63.6340625,98.15225 L63.6340625,109.69425 L52.0910625,109.69425 L52.0910625,98.15225 Z M75.1770625,98.15225 L86.7200625,98.15225 L86.7200625,109.69425 L75.1770625,109.69425 L75.1770625,98.15225 Z M98.2640625,98.15225 L109.807062,98.15225 L109.807062,109.69425 L98.2640625,109.69425 L98.2640625,98.15225 Z" id="Shape"></path>
        </g>
    </g>
</svg>