<?xml version="1.0" encoding="UTF-8"?>
<svg width="169px" height="169px" viewBox="0 0 169 169" version="1.1" xmlns="http://www.w3.org/2000/svg" xmlns:xlink="http://www.w3.org/1999/xlink">
    <title>date-time</title>
    <g id="Page-1" stroke="none" stroke-width="1" fill="none" fill-rule="evenodd">
        <g id="date-time" fill="#017BA8" fill-rule="nonzero">
            <path d="M124.999219,81.25 C149.161719,81.25 168.749219,100.8375 168.749219,125 C168.749219,149.1625 149.161719,168.75 124.999219,168.75 C100.836719,168.75 81.2492187,149.1625 81.2492187,125 C81.2492187,100.8375 100.836719,81.25 124.999219,81.25 Z M114.061719,0 C118.376367,0 121.874219,3.49785156 121.874219,7.8125 L121.874023,12.5 L149.999805,12.5 C156.903516,12.5 162.499805,18.0970703 162.499805,25.0005859 L162.499805,68.75 C162.499805,72.6332031 159.351367,75.78125 155.467969,75.78125 C151.584766,75.78125 148.436719,72.6332031 148.436719,68.75 C148.436719,68.7033203 148.437109,68.6568359 148.438086,68.6103516 L148.438086,65.234375 L14.0623047,65.234375 L14.0625,148.4375 L56.2492188,148.4375 C60.1324219,148.4375 63.2804687,151.585547 63.2804687,155.46875 C63.2804687,159.313086 60.1951172,162.436914 56.3654297,162.5 L12.5,162.5 C5.59648437,162.5 0,156.903711 0,150 L0,25.0007812 C0,18.0970703 5.59648437,12.5 12.5,12.5 L40.625,12.5 L40.625,7.8125 C40.625,3.49785156 44.1228516,0 48.4375,0 C52.7521484,0 56.25,3.49785156 56.25,7.8125 L56.25,12.5 L106.249023,12.5 L106.249023,7.8125 C106.249023,3.49785156 109.74707,0 114.061523,0 L114.061719,0 Z M124.999219,93.75 C107.740234,93.75 93.7492187,107.741016 93.7492187,125 C93.7492187,142.258984 107.740234,156.25 124.999219,156.25 C142.258008,156.25 156.249219,142.258984 156.249219,125 C156.249219,107.741016 142.258008,93.75 124.999219,93.75 Z M124.999219,99.4140625 C128.450977,99.4140625 131.249219,102.212305 131.249219,105.664062 L131.249219,125.302734 L140.040625,130.37832 C143.029883,132.104297 144.054297,135.926758 142.32832,138.916016 C140.602344,141.905273 136.779883,142.929687 133.790625,141.203711 L122.457813,134.660742 C122.352416,134.599867 122.248793,134.535973 122.14707,134.469141 C120.129492,133.432422 118.749219,131.330469 118.749219,128.90625 L118.749219,105.664062 C118.749219,102.212305 121.547461,99.4140625 124.999219,99.4140625 L124.999219,99.4140625 Z M40.625,26.5621094 L14.0623047,26.5621094 L14.0623047,52.734375 L148.438086,52.734375 L148.438086,26.5621094 L121.874023,26.5621094 L121.874023,29.6875 C121.874023,34.0021484 118.376367,37.5 114.061523,37.5 C109.74707,37.5 106.249023,34.0021484 106.249023,29.6875 L106.249023,26.5621094 L56.25,26.5621094 L56.25,29.6875 C56.25,34.0021484 52.7521484,37.5 48.4375,37.5 C44.1228516,37.5 40.625,34.0021484 40.625,29.6875 L40.625,26.5621094 Z" id="Shape"></path>
        </g>
    </g>
</svg>