<?xml version="1.0" encoding="UTF-8"?>
<svg width="165px" height="185px" viewBox="0 0 165 185" version="1.1" xmlns="http://www.w3.org/2000/svg" xmlns:xlink="http://www.w3.org/1999/xlink">
    <title>db</title>
    <g id="Page-1" stroke="none" stroke-width="1" fill="none" fill-rule="evenodd">
        <g id="db" fill="#707070" fill-rule="nonzero">
            <path d="M164.640627,35.5875408 C164.683276,25.2736275 158.065558,16.0048508 144.192118,9.49192109 C131.341471,3.44309004 101.269132,0.108556836 82.651616,0.108556836 C64.0343609,0.108556836 33.9826658,3.4432207 21.1112449,9.49584082 C7.2687707,16.022751 0.145535547,25.2797684 0.145535547,36.8840641 L0.145535547,151.175677 C0.145535547,160.039151 7.26668008,169.247433 21.1013148,175.801128 C34.0274816,181.945601 64.3432373,184.954403 82.6337158,184.954403 C102.182957,184.954403 131.302666,181.998387 144.176047,175.94642 C158.018652,169.418726 164.640627,160.161709 164.640627,149.864781 L164.640627,35.5875408 L164.640627,35.5875408 Z M130.635655,105.691787 C143.914207,102.099203 146.691613,99.3747139 150.22331,96.471876 L150.22331,115.623393 C149.592622,118.294704 146.329297,121.300109 135.275073,125.424734 C124.389529,129.493045 98.57574,132.491132 82.6551437,132.491132 C67.8643508,132.491132 40.9472816,129.549358 30.1188354,125.586489 C18.9808594,121.502238 15.6383561,119.051478 13.8987701,115.615423 L13.8987701,96.483766 C19.0353441,99.6882941 22.7017496,101.645034 34.6231533,105.187184 C45.0098434,108.273335 69.663125,110.308993 82.6273135,110.408816 C104.794558,110.579326 120.137644,108.447372 130.635655,105.691787 L130.635655,105.691787 Z M13.5576209,133.364192 C17.4143957,136.148784 27.2940006,140.251327 35.0261039,142.394125 C47.0963275,145.739111 70.1507422,147.478828 82.6574957,147.478828 C95.1649023,147.478828 119.089241,145.739111 130.291762,142.265296 C142.439858,138.498283 145.524703,136.635356 150.615416,133.364192 L150.615416,151.22389 C150.615416,154.307297 145.811106,158.854079 134.826785,163.082055 C124.024209,167.253063 101.394565,170.527493 82.6534451,170.320792 C62.4673744,170.09828 41.2826816,167.322704 30.6043621,163.265891 C21.3446008,159.746346 13.5576209,154.033699 13.5576209,149.980806 L13.5576209,133.364192 Z M135.862906,88.4506258 C124.888645,92.6915363 98.8371875,95.8275994 82.6610234,95.5317889 C67.5691934,95.2558383 41.7394635,92.5611393 29.51846,88.3541998 C19.9739939,85.0686635 14.0671889,81.0016592 14.0671889,76.8553455 L14.0671889,57.9039967 C19.9325754,62.7499863 25.3643068,64.6987564 34.0874539,67.3229 C46.1806734,70.9608221 69.8580674,72.3421428 82.6631139,72.3421428 C95.4681604,72.3421428 118.174762,70.8718437 131.236945,67.3247293 C142.732925,64.202908 145.556845,61.7409115 150.223571,58.156298 L150.223571,76.8682807 C149.663831,80.5460535 145.234772,84.8269455 135.862906,88.4506258 L135.862906,88.4506258 Z M135.771575,50.0940211 C120.918328,55.5846793 99.6378621,57.7094463 82.6591941,57.7094463 C65.6434191,57.7094463 41.6174285,55.0785086 29.2888932,50.3068637 C18.608483,46.1639469 14.4667422,40.5943709 14.4667422,35.7685027 C14.4667422,30.943941 18.6141014,25.3712293 29.2888932,21.2315789 C41.5970457,16.4564061 65.623167,13.8289963 82.6591941,13.8289963 C99.6966584,13.8289963 123.309638,16.4564063 135.63948,21.2315789 C146.330081,25.3845564 150.488677,30.9486447 150.488677,35.757266 C150.470908,40.4300025 146.364967,45.9171332 135.771575,50.0940211 L135.771575,50.0940211 Z" id="Shape"></path>
        </g>
    </g>
</svg>