<?xml version="1.0" encoding="UTF-8"?>
<svg width="183px" height="117px" viewBox="0 0 183 117" version="1.1" xmlns="http://www.w3.org/2000/svg" xmlns:xlink="http://www.w3.org/1999/xlink">
    <title>decimal</title>
    <g id="Page-1" stroke="none" stroke-width="1" fill="none" fill-rule="evenodd">
        <g id="decimal" fill="#017BA8" fill-rule="nonzero">
            <path d="M31.3802084,0.0651041016 L31.3802084,116.731771 L17.9739584,116.731771 L17.9739584,25.1734375 L0.130208398,25.1734375 L0.130208398,14.1109375 C2.5760418,14.1109375 5.021875,14.1109375 7.2864584,13.7921875 C15.378125,12.9671875 19.9364584,9.3213541 20.0885416,0.0651041016 L31.3802084,0.0651041016 Z M70.303125,0.0651041016 C84.2489584,0.0651041016 89.2697916,10.6776041 90.915625,16.2171875 C91.6489584,18.8151041 92.559375,23.3859375 92.559375,30.0838541 C92.559375,34.4984375 92.265625,43.4505207 87.9489584,54.0630209 C86.4802084,57.6630209 84.690625,61.0755209 82.753125,64.6755209 L61.259375,104.335938 L93.8802084,104.335938 L93.8802084,116.731771 L48.046875,116.731771 L48.046875,102.771354 L69.6864584,62.4817709 C71.3322918,59.3817709 72.9447918,56.2838543 74.4427084,53.1838541 C79.1989584,43.5421875 80.228125,39.0046875 80.228125,28.2359375 C80.228125,27.5776041 80.3739584,24.3234375 79.7864584,21.7255209 C78.3177084,14.0546875 73.5614584,13.0859375 70.4489584,13.0859375 C66.896875,13.0859375 65.3989584,14.5567709 64.2260416,15.8713541 C60.965625,19.6276041 61.259375,24.8546875 61.259375,29.4255209 L61.259375,42.6338541 L49.2510416,42.6338541 L49.2510416,28.2671875 C49.2510416,26.6401041 49.396875,25.0109375 49.396875,23.5401041 C49.5427084,20.1276041 49.5427084,9.3609375 58.146875,3.4755209 C61.846875,1.0359375 66.1635416,0.0651041016 70.303125,0.0651041016 Z M159.896875,0.0963541016 C166.038542,0.0963541016 169.886458,2.1942707 172.178125,3.7984375 C178.176042,8.3005209 180.751042,15.0567709 180.751042,30.0171875 C180.751042,41.5838541 179.901042,47.3817709 175.884375,51.2380209 C173.167708,53.9838543 170.167708,54.2921875 169.036458,54.6005209 C171.894792,55.4026043 178.459375,56.6984375 180.751042,65.8588541 C182.021875,70.6713541 182.334375,82.7338541 182.334375,87.8838541 C182.307292,89.6421875 182.307292,95.9046875 180.609375,101.208854 C178.740625,107.006771 173.167708,116.477604 159.755208,116.477604 C157.605208,116.477604 149.909375,116.169271 143.911458,110.863021 C139.921875,107.315104 137.630208,101.856771 137.630208,90.2901041 C137.630208,87.2359375 137.771875,84.1817707 137.771875,80.9734375 L149.203125,81.1276041 C149.061458,84.4901041 149.203125,88.0380207 149.344792,91.4296875 C149.486458,95.9338541 149.767708,99.2963541 153.051042,102.042188 C154.747006,103.414855 156.86717,104.155697 159.048958,104.138021 C159.757292,104.138021 163.319792,103.983854 165.755208,101.888021 C170.196875,98.0317709 169.603125,90.6276043 169.603125,85.4776041 C169.603125,83.2255207 169.744792,80.8192707 169.744792,78.5671875 C169.744792,77.9213541 169.886458,70.7026041 167.453125,66.3526041 C165.161458,62.4984375 160.605208,61.5401041 156.728125,61.5401041 C155.457292,61.5401041 154.153125,61.5401041 152.738542,61.6942709 L152.880208,48.9859375 C153.021875,48.9859375 161.453125,50.0963541 165.159375,46.0880209 C168.301042,42.8796875 168.726042,36.7713543 168.726042,32.7317709 C168.725716,29.2413498 168.583933,25.7523758 168.301042,22.2734375 C168.159375,19.0651041 167.453125,12.4651041 159.446875,12.4651041 C158.313542,12.4651041 156.021875,12.3109375 153.871875,14.7151041 C151.296875,17.6171875 150.730208,21.6255207 150.730208,29.3380209 C150.730208,30.7880209 150.730208,32.2380209 150.871875,33.6880209 L139.469792,33.6880209 C139.328282,30.6354934 139.328282,27.5780484 139.469792,24.5255209 C139.753125,14.5630209 141.478125,5.5546875 150.759375,1.7005209 C152.030208,1.2067709 155.767708,0.0963541016 159.896875,0.0963541016 L159.896875,0.0963541016 Z M108.463542,100.065104 L125.130208,100.065104 L125.130208,116.731771 L108.463542,116.731771 L108.463542,100.065104 Z" id="Shape"></path>
        </g>
    </g>
</svg>