<?xml version="1.0" encoding="UTF-8"?>
<svg width="200px" height="200px" viewBox="0 0 200 200" version="1.1" xmlns="http://www.w3.org/2000/svg" xmlns:xlink="http://www.w3.org/1999/xlink">
    <title>delete</title>
    <g id="Page-1" stroke="none" stroke-width="1" fill="none" fill-rule="evenodd">
        <g id="delete" fill="#017BA8" fill-rule="nonzero">
            <path d="M46.1538461,46.1538461 L46.1538461,180 C46.1538461,181.224076 46.6401085,182.398017 47.505661,183.26357 C48.3712136,184.129122 49.5451547,184.615385 50.7692309,184.615385 L149.230769,184.615385 C150.454845,184.615385 151.628786,184.129122 152.494339,183.26357 C153.359892,182.398017 153.846154,181.224076 153.846154,180 L153.846154,46.1538461 L46.1538461,46.1538461 Z M123.076923,30.7692309 L123.076923,20 C123.076923,17.4509935 121.010545,15.3846154 118.461538,15.3846154 L81.5384615,15.3846154 C78.989455,15.3846154 76.923077,17.4509935 76.923077,20 L76.923077,30.7692309 L123.076923,30.7692309 Z M138.461538,30.7692309 L192.307692,30.7692309 C196.556037,30.7692309 200,34.2131943 200,38.4615385 C200,42.7098827 196.556037,46.1538461 192.307692,46.1538461 L169.230769,46.1538461 L169.230769,184.615385 C169.230769,193.112308 162.343077,200 153.846154,200 L46.1538461,200 C37.656923,200 30.7692307,193.112308 30.7692309,184.615385 L30.7692309,46.1538461 L7.69230762,46.1538461 C3.44396343,46.1538461 0,42.7098827 0,38.4615385 C0,34.2131943 3.44396343,30.7692309 7.69230762,30.7692309 L61.5384615,30.7692309 L61.5384615,15.3846154 C61.5384615,6.88769238 68.4261539,0 76.923077,0 L123.076923,0 C131.573846,0 138.461538,6.88769238 138.461538,15.3846154 L138.461538,30.7692309 Z M84.6153846,76.923077 C86.6555114,76.923077 88.61208,77.7335141 90.0546676,79.1761016 C91.4972551,80.6186891 92.3076924,82.5752577 92.3076924,84.6153846 L92.3076924,146.153846 C92.3076924,150.40219 88.8637289,153.846154 84.6153847,153.846154 C80.3670404,153.846154 76.923077,150.40219 76.923077,146.153846 L76.923077,84.6153846 C76.923077,80.3670404 80.3670404,76.923077 84.6153846,76.923077 Z M115.384615,76.923077 C119.63296,76.923077 123.076923,80.3670404 123.076923,84.6153846 L123.076923,146.153846 C123.076923,150.40219 119.63296,153.846154 115.384615,153.846154 C111.136271,153.846154 107.692308,150.40219 107.692308,146.153846 L107.692308,84.6153846 C107.692308,82.5752577 108.502745,80.6186891 109.945332,79.1761016 C111.38792,77.7335141 113.344489,76.923077 115.384615,76.923077 Z" id="Shape"></path>
        </g>
    </g>
</svg>