<?xml version="1.0" encoding="UTF-8"?>
<svg width="136px" height="160px" viewBox="0 0 136 160" version="1.1" xmlns="http://www.w3.org/2000/svg" xmlns:xlink="http://www.w3.org/1999/xlink">
    <title>down</title>
    <g id="Page-1" stroke="none" stroke-width="1" fill="none" fill-rule="evenodd">
        <g id="down" fill-rule="nonzero">
            <path d="M101.073438,50.6625 L101.073438,154.8625 C101.073438,157.1625 99.2734375,158.9625 96.9734375,158.9625 L88.5734375,158.9625 C86.2734375,158.9625 84.4734375,157.1625 84.4734375,154.8625 L84.4734375,5.8625 C84.4734375,4.9625 84.7734375,4.0625 85.2734375,3.3625 C85.4734375,2.5625 85.8734375,1.8625 86.4734375,1.2625 C88.1734375,-0.3375 90.7734375,-0.2375 92.2734375,1.4625 L134.673438,46.5625 C135.073438,47.0625 135.373438,47.6625 135.373438,48.2625 C135.373438,49.6625 134.273438,50.7625 132.873438,50.7625 L101.073438,50.6625 Z" fill="#C3C6CB"></path>
            <path d="M34.4734375,108.9625 L34.4734375,4.7625 C34.4734375,2.4625 36.2734375,0.6625 38.5734375,0.6625 L46.9734375,0.6625 C49.2734375,0.6625 51.0734375,2.4625 51.0734375,4.7625 L51.0734375,153.7625 C51.0734375,154.6625 50.7734375,155.5625 50.2734375,156.2625 C50.0734375,157.0625 49.6734375,157.7625 49.0734375,158.3625 C47.3734375,159.9625 44.7734375,159.8625 43.2734375,158.1625 L0.8734375,113.0625 C0.4734375,112.5625 0.1734375,111.9625 0.1734375,111.3625 C0.1734375,109.9625 1.2734375,108.8625 2.6734375,108.8625 L34.4734375,108.9625 L34.4734375,108.9625 Z" id="up" fill="#017BA8"></path>
        </g>
    </g>
</svg>