<?xml version="1.0" encoding="UTF-8"?>
<svg width="188px" height="188px" viewBox="0 0 188 188" version="1.1" xmlns="http://www.w3.org/2000/svg" xmlns:xlink="http://www.w3.org/1999/xlink">
    <title>field</title>
    <g id="Page-1" stroke="none" stroke-width="1" fill="none" fill-rule="evenodd">
        <g id="field" fill="#017BA8" fill-rule="nonzero">
            <path d="M83.2125,45.45 L74.9625,45.45 C72.5,45.45 70.5125,45.675 69.0375,46.1125 C67.6011736,46.5895624 66.3248995,47.454833 65.35,48.6125 C64.0875,49.9875 62.875,52.05 61.75,54.7875 C60.3622117,58.3521247 59.246518,62.0167815 58.4125,65.75 L57.9625,67.6625 L45.025,67.6625 L45.025,32.925 L142.475,32.925 L142.475,67.675 L129.6625,67.675 L129.1875,65.7875 C128.267419,61.9536166 127.064116,58.1932922 125.5875,54.5375 C124.768127,52.4349311 123.61127,50.4800967 122.1625,48.75 C121.200412,47.6529195 120.004348,46.7857732 118.6625,46.2125 C117.45,45.725 115.3875,45.45 112.5375,45.45 L104.2,45.45 L104.2,130.45 C104.2,133.675 104.375,136.2 104.7,138.025 C104.899581,139.375015 105.357972,140.67379 106.05,141.85 C106.5847,142.657245 107.327531,143.305063 108.2,143.725 C109.2875,144.275 111.175,144.85 113.775,145.4375 L115.7375,145.875 L115.7375,154.575 L71.6875,154.575 L71.6875,145.9 L73.6125,145.45 C75.2375,145.075 76.6625,144.6625 77.8875,144.2375 C78.7763343,143.955685 79.6125692,143.529121 80.3625,142.975 C80.9404708,142.503286 81.4131358,141.915648 81.75,141.25 C82.2639466,140.153028 82.6135309,138.986343 82.7875,137.7875 C83.075,136.2 83.2125,133.7375 83.2125,130.45 L83.2125,45.45 L83.2125,45.45 Z M25,0 L162.5,0 C176.307119,0 187.5,11.1928813 187.5,25 L187.5,162.5 C187.5,176.307119 176.307119,187.5 162.5,187.5 L25,187.5 C11.1928813,187.5 0,176.307119 0,162.5 L0,25 C0,11.1928813 11.1928813,0 25,0 Z M25,15 C19.4771525,15 15,19.4771525 15,25 L15,162.5 C15,168.022847 19.4771525,172.5 25,172.5 L162.5,172.5 C168.022847,172.5 172.5,168.022847 172.5,162.5 L172.5,25 C172.5,19.4771525 168.022847,15 162.5,15 L25,15 Z" id="Shape"></path>
        </g>
    </g>
</svg>