<?xml version="1.0" standalone="no"?>
<svg class="icon" width="200px" height="200.00px" viewBox="0 0 1024 1024" version="1.1"
     xmlns="http://www.w3.org/2000/svg">
    <path fill="#707070"
          d="M956.8 83.2C953.6 70.4 940.8 64 928 64L96 64C83.2 64 70.4 70.4 67.2 83.2 60.8 96 64 108.8 73.6 118.4l310.4 310.4L384 928c0 12.8 6.4 25.6 19.2 28.8C406.4 960 412.8 960 416 960c9.6 0 16-3.2 22.4-9.6l192-192c6.4-6.4 9.6-12.8 9.6-22.4l0-307.2 310.4-310.4C960 108.8 963.2 96 956.8 83.2zM585.6 393.6C579.2 400 576 406.4 576 416l0 307.2-128 128L448 416c0-9.6-3.2-16-9.6-22.4L172.8 128l678.4 0L585.6 393.6z"/>
</svg>