<?xml version="1.0" encoding="UTF-8"?>
<svg width="239px" height="158px" viewBox="0 0 239 158" version="1.1" xmlns="http://www.w3.org/2000/svg" xmlns:xlink="http://www.w3.org/1999/xlink">
    <title>float</title>
    <g id="Page-1" stroke="none" stroke-width="1" fill="none" fill-rule="evenodd">
        <g id="float" fill="#017BA8" fill-rule="nonzero">
            <path d="M209.770903,73.1150063 C201.680039,73.1150063 195.207347,74.7331792 190.352829,79.5876975 C185.49831,84.442216 182.261965,90.9149074 182.261965,99.0057715 L193.589174,99.0057715 C193.589174,94.151253 195.207347,90.9149074 198.443693,87.6785618 C201.680038,84.4422162 204.916384,84.4422162 209.770903,84.442216 C214.625421,84.442216 217.861767,86.0603889 221.098113,87.6785618 C222.716286,89.2967347 224.334458,92.5330803 224.334458,97.3875988 C224.334458,102.242117 222.716285,103.86029 221.098113,107.096636 C217.861767,108.714809 214.625421,110.332981 209.770903,110.332981 L203.298211,110.332981 L203.298211,120.042019 L209.770903,120.042019 C214.625421,120.042019 219.47994,121.660191 221.098113,123.278364 C224.334458,123.278364 225.952631,126.51471 225.952631,131.369228 C225.952631,134.605574 224.334458,137.84192 221.098113,141.078266 C217.861767,144.314611 213.007249,145.932784 208.15273,145.932784 C203.298211,145.932784 200.061866,144.314611 196.82552,141.078266 C195.207347,139.460093 193.589175,136.223747 193.589174,129.751056 L180.643792,129.751056 C180.643792,139.460093 183.880137,145.932784 190.352829,150.787303 C195.207347,155.641821 201.680039,157.259994 209.770903,157.259994 C217.861767,157.259994 225.952631,155.641821 230.80715,150.787303 C235.661668,145.932784 238.898014,139.460093 238.898014,132.987401 C238.898014,128.132883 237.279841,124.896537 234.043495,121.660191 C230.80715,118.423846 227.570804,116.805673 222.716285,115.1875 C230.80715,111.951154 235.661668,107.096636 235.661668,97.3875988 C235.661668,90.9149074 234.043495,84.4422162 229.188977,81.2058704 C224.334458,74.7331789 217.861767,73.1150063 209.770903,73.1150063 M143.425816,73.1150063 C135.334952,73.1150063 127.244088,76.3513519 122.389569,81.2058704 C117.535051,87.6785618 115.916878,94.151253 114.298705,103.86029 L127.244088,103.86029 C127.244088,97.3875986 128.862261,92.5330801 132.098606,89.2967345 C135.334952,86.0603889 138.571298,84.442216 143.425816,84.442216 C148.280335,84.442216 151.516681,86.0603889 154.753026,87.6785618 C157.989372,89.2967347 157.989372,92.5330803 157.989372,97.3875988 C157.989372,102.242117 156.371199,107.096636 153.134853,110.332981 C149.898508,111.951154 146.662162,115.1875 140.189471,120.042019 C132.098606,126.51471 125.625915,131.369228 122.389569,134.605574 C117.535051,141.078266 114.298705,147.550957 114.298705,155.641821 L169.316582,155.641821 L169.316582,144.314611 L130.480434,144.314611 C132.098606,139.460093 136.953125,134.605574 145.043989,129.751056 C153.134853,123.278364 157.989372,120.042019 161.225718,116.805673 C166.080236,110.332981 169.316582,103.86029 169.316582,97.3875988 C169.316582,90.9149074 167.698409,84.4422162 161.225718,79.5876975 C157.989372,76.3513519 151.516681,73.1150063 143.425816,73.1150063 M93.2624583,139.460093 C91.6442854,139.460093 88.4079398,139.460093 86.7897669,141.078266 C85.1715942,142.696438 85.1715942,144.314611 85.1715942,147.550957 C85.1715942,149.16913 85.1715942,152.405475 86.7897669,154.023648 C88.4079398,154.023648 91.6442854,155.641821 93.2624583,155.641821 C94.8806313,155.641821 98.1169769,155.641821 99.7351498,154.023648 C101.353323,152.405475 102.971495,150.787303 102.971495,147.550957 C102.971495,145.932784 102.971495,142.696438 101.353322,141.078266 C98.1169769,139.460093 96.4988039,139.460093 93.2624583,139.460093 M43.9216931,0.0236481484 C40.5716929,6.30936227 33.8716928,12.5950769 23.821693,15.7379342 C17.1216932,22.0236481 7.07169316,22.0236481 0.371692822,25.1665056 L0.371692822,50.3093625 C17.1216927,44.0236481 27.1716927,37.7379338 40.5716929,28.3093624 L40.5716929,154.023648 L67.3716928,154.023648 L67.3716928,0.0236481484 L43.9216931,0.0236481484 Z" id="Shape"></path>
        </g>
    </g>
</svg>