<?xml version="1.0" standalone="no"?><!DOCTYPE svg PUBLIC "-//W3C//DTD SVG 1.1//EN"
        "http://www.w3.org/Graphics/SVG/1.1/DTD/svg11.dtd">
<svg class="icon" width="200px" height="196.55px" viewBox="0 0 1042 1024" version="1.1"
     xmlns="http://www.w3.org/2000/svg">
    <path fill="#017BA8"
          d="M1041.464889 355.783111c0 19.911111-2.844444 39.310222-8.362667 57.628445h-44.999111a216.746667 216.746667 0 0 0 9.443556-58.595556 28.387556 28.387556 0 0 0-3.584-13.027556c-2.332444-4.608-6.883556-7.054222-13.880889-7.054222a20.195556 20.195556 0 0 0-12.629334 4.209778c-3.527111 2.844444-12.003556 11.320889-25.884444 25.884444l-87.267556 91.818667 39.480889 124.245333c4.266667 13.425778 8.590222 24.689778 13.027556 33.564445 4.323556 8.988444 9.955556 13.312 16.440889 13.312 10.979556 0 20.707556-8.419556 29.525333-25.201778 8.704-17.009778 14.961778-31.914667 18.773333-44.999111h42.040889c-9.443556 34.133333-21.447111 61.895111-36.693333 83.569778-15.132444 21.447111-31.118222 37.205333-48.355556 47.104-17.237333 9.784889-33.564444 14.791111-48.696888 14.791111-24.860444 0-43.52-8.362667-56.376889-25.486222-12.970667-17.180444-24.519111-41.073778-34.417778-72.362667l-18.033778-58.88-102.741333 109.226667c-29.980444 31.687111-55.125333 47.445333-74.979556 47.445333-27.420444 0-41.244444-18.318222-41.244444-55.011556 0-25.884444 5.404444-51.882667 16.497778-77.880888h50.688c-11.548444 32.483556-17.521778 53.248-17.521778 62.464 0 9.671111 3.015111 14.563556 8.874666 14.563555 5.006222 0 13.539556-5.973333 25.884445-18.318222l120.035555-127.544889-22.983111-73.102222a571.335111 571.335111 0 0 0-11.150222-33.109334 50.517333 50.517333 0 0 0-10.638222-17.066666 21.504 21.504 0 0 0-15.701333-6.599111c-17.863111 0-32.881778 23.153778-44.999112 69.518222h-43.121777c10.126222-32.881778 21.333333-60.074667 34.474666-81.92 12.856889-21.674667 27.477333-38.286222 43.861334-49.948445 16.327111-11.434667 33.678222-17.351111 52.110222-17.351111 24.462222 0 44.032 8.760889 58.823111 26.168889 14.848 17.351111 27.079111 41.301333 36.408889 71.907556l7.566222 23.950222 72.192-77.937778c28.16-29.354667 53.418667-44.088889 75.889778-44.088889 22.300444 0 36.522667 7.168 42.837333 21.560889 6.200889 14.279111 9.386667 28.558222 9.386667 42.552889m-350.492445-244.906667a48.810667 48.810667 0 0 1-13.312 34.531556 44.145778 44.145778 0 0 1-33.507555 14.791111c-13.710222 0-23.950222-4.209778-30.037333-12.686222-6.087111-8.533333-12.572444-22.243556-18.716445-41.244445a46.819556 46.819556 0 0 0-8.590222-16.952888c-3.584-4.039111-8.988444-6.030222-15.815111-6.030223-8.078222 0-14.222222 3.413333-18.545778 10.126223s-7.907556 15.587556-10.922667 26.339555L484.693333 305.038222h78.791111l-13.596444 43.064889H471.267556L389.688889 614.855111c-21.560889 69.745778-41.073778 124.302222-58.595556 164.124445a300.373333 300.373333 0 0 1-73.614222 102.741333c-31.630222 28.672-71.623111 43.008-120.092444 43.008-34.588444 0-61.553778-7.566222-80.440889-22.698667-18.887111-15.303111-28.387556-32.312889-28.387556-51.313778a53.475556 53.475556 0 0 1 14.961778-37.660444 50.801778 50.801778 0 0 1 38.968889-16.213333c18.887111 0 31.573333 5.006222 37.546667 15.36 5.916444 10.296889 9.671111 23.324444 11.093333 39.651555 1.934222 21.219556 11.036444 31.971556 27.249778 31.971556 15.985778 0 29.127111-8.874667 39.424-26.396445 10.353778-17.806222 20.764444-44.828444 31.573333-81.464889l130.844444-427.121777H277.504l13.084444-43.121778h82.488889l8.874667-30.037333c12.117333-42.382222 25.770667-79.587556 40.391111-111.331556a247.352889 247.352889 0 0 1 65.479111-84.650667C516.721778 54.897778 552.846222 42.666667 596.309333 42.666667c16.270222 0 31.744 2.844444 46.478223 8.192 14.677333 5.404444 26.339556 13.198222 35.100444 23.438222 8.817778 9.898667 13.084444 22.300444 13.084444 36.579555"/>
</svg>