<?xml version="1.0" encoding="UTF-8"?>
<svg width="167px" height="167px" viewBox="0 0 167 167" version="1.1" xmlns="http://www.w3.org/2000/svg" xmlns:xlink="http://www.w3.org/1999/xlink">
    <title>grid</title>
    <g id="Page-1" stroke="none" stroke-width="1" fill="none" fill-rule="evenodd">
        <g id="grid" fill="#707070" fill-rule="nonzero">
            <path d="M158.398437,0.0651041016 L8.3984375,0.0651041016 C3.79606455,0.0651041016 0.0651041016,3.79606455 0.0651041016,8.3984375 L0.0651041016,158.398437 C0.0651041016,163.00081 3.79606455,166.731771 8.3984375,166.731771 L158.398437,166.731771 C163.00081,166.731771 166.731771,163.00081 166.731771,158.398438 L166.731771,8.3984375 C166.731771,3.79606455 163.00081,0.0651041016 158.398437,0.0651041016 Z M75.0651041,150.065104 L16.7317709,150.065104 L16.7317709,116.731771 L75.0651041,116.731771 L75.0651041,150.065104 Z M75.0651041,100.065104 L16.7317709,100.065104 L16.7317709,66.7317709 L75.0651041,66.7317709 L75.0651041,100.065104 Z M150.065104,150.065104 L91.7317709,150.065104 L91.7317709,116.731771 L150.065104,116.731771 L150.065104,150.065104 Z M150.065104,100.065104 L91.7317709,100.065104 L91.7317709,66.7317709 L150.065104,66.7317709 L150.065104,100.065104 Z M150.065104,50.0651041 L16.7317709,50.0651041 L16.7317709,16.7317709 L150.065104,16.7317709 L150.065104,50.0651041 Z" id="Shape"></path>
        </g>
    </g>
</svg>