<?xml version="1.0" encoding="UTF-8"?>
<svg width="200px" height="186px" viewBox="0 0 200 186" version="1.1" xmlns="http://www.w3.org/2000/svg" xmlns:xlink="http://www.w3.org/1999/xlink">
    <title>Group</title>
    <g id="Page-1" stroke="none" stroke-width="1" fill="none" fill-rule="evenodd">
        <g id="Group" fill="#707070" fill-rule="nonzero">
            <path d="M185.675431,185.675431 L157.10998,185.675431 L142.827254,185.675431 L114.261803,185.675431 L99.979078,185.675431 L71.4136272,185.675431 C63.525992,185.675431 57.1309017,179.28034 57.1309017,171.392705 L57.1309017,142.827254 L57.1309017,128.544529 L57.1309017,99.979078 L57.1309017,85.6963527 L57.1309017,57.1309017 L57.1309017,42.8481762 L57.1309017,14.2827255 C57.1309017,6.3950903 63.525992,0 71.4136272,0 L99.979078,0 L114.261803,0 L142.827254,0 L157.10998,0 L185.675431,0 C193.563066,0 199.958156,6.3950903 199.958156,14.2827255 L199.958156,171.392705 C199.958156,179.28034 193.563066,185.675431 185.675431,185.675431 Z M114.261803,171.392705 L142.827254,171.392705 L142.827254,142.827254 L114.261803,142.827254 L114.261803,171.392705 Z M114.261803,128.544529 L142.827254,128.544529 L142.827254,99.979078 L114.261803,99.979078 L114.261803,128.544529 Z M142.827254,85.6963527 L142.827254,57.1309017 L114.261803,57.1309017 L114.261803,85.6963527 L142.827254,85.6963527 Z M71.4136272,171.392705 L99.979078,171.392705 L99.979078,142.827254 L71.4136272,142.827254 L71.4136272,171.392705 Z M71.4136272,128.544529 L99.979078,128.544529 L99.979078,99.979078 L71.4136272,99.979078 L71.4136272,128.544529 Z M71.4136272,85.6963527 L99.979078,85.6963527 L99.979078,57.1309017 L71.4136272,57.1309017 L71.4136272,85.6963527 Z M71.4136272,14.2827255 L71.4136272,42.8481762 L99.979078,42.8481762 L99.979078,14.2827255 L71.4136272,14.2827255 Z M114.261803,14.2827255 L114.261803,42.8481762 L142.827254,42.8481762 L142.827254,14.2827255 L114.261803,14.2827255 Z M185.675431,14.2827255 L157.10998,14.2827255 L157.10998,42.8481762 L185.675431,42.8481762 L185.675431,14.2827255 Z M185.675431,57.1309017 L157.10998,57.1309017 L157.10998,85.6963527 L185.675431,85.6963527 L185.675431,57.1309017 Z M185.675431,99.979078 L157.10998,99.979078 L157.10998,128.544529 L185.675431,128.544529 L185.675431,99.979078 Z M185.675431,142.827254 L157.10998,142.827254 L157.10998,171.392705 L185.675431,171.392705 L185.675431,142.827254 Z M21.4240881,171.392705 C25.369691,171.392705 28.565451,174.592036 28.565451,178.534068 C28.565451,182.4761 25.369691,185.675431 21.4240881,185.675431 L7.14136265,185.675431 C3.19575975,185.675431 0,182.4761 0,178.534068 L0,7.14136265 C0,3.19933055 3.19575975,0 7.14136265,0 L21.4240881,0 C25.369691,0 28.565451,3.19933055 28.565451,7.14136265 C28.565451,11.0833949 25.369691,14.2827255 21.4240881,14.2827255 L14.2827255,14.2827255 L14.2827255,171.392705 L21.4240881,171.392705 Z" id="group"></path>
        </g>
    </g>
</svg>