<?xml version="1.0" encoding="UTF-8"?>
<svg width="184px" height="200px" viewBox="0 0 184 200" version="1.1" xmlns="http://www.w3.org/2000/svg" xmlns:xlink="http://www.w3.org/1999/xlink">
    <title>import</title>
    <g id="Page-1" stroke="none" stroke-width="1" fill="none" fill-rule="evenodd">
        <g id="import" fill="#017BA8" fill-rule="nonzero">
            <path d="M156.544922,0 L26.6621094,0 C12.03125,0 0.130859375,12.8183594 0.130859375,28.5761719 L0.130859375,100 C0.130859375,103.324495 2.82589531,106.019531 6.15039063,106.019531 C9.47488594,106.019531 12.1699219,103.324495 12.1699219,100 L12.1699219,28.5761719 C12.1699219,19.4570312 18.6699219,12.0410156 26.6582031,12.0410156 L156.541016,12.0410156 C164.529297,12.0410156 171.029297,19.4628906 171.029297,28.5761719 L171.029297,171.423828 C171.029297,180.542969 164.529297,187.958984 156.541016,187.958984 L91.6015625,187.958984 C88.3187941,188.018114 85.6885205,190.696191 85.6885205,193.979492 C85.6885205,197.262793 88.3187941,199.94087 91.6015625,200 L156.544922,200 C171.171875,200 183.072266,187.181641 183.072266,171.423828 L183.072266,28.5761719 C183.072266,12.8183594 171.171875,0 156.544922,0 Z M92.1210937,135.914062 L55.6328125,99.4238281 C53.2823663,97.0723032 49.4706655,97.0714288 47.1191406,99.421875 C44.7676157,101.772321 44.7667413,105.584022 47.1171875,107.935547 L73.3300781,134.150391 L6.14257812,134.150391 C2.81808281,134.150391 0.123046875,136.845427 0.123046875,140.169922 C0.123046875,143.494417 2.81808281,146.189453 6.14257812,146.189453 L73.3300781,146.189453 L47.1171875,172.404297 C44.7667413,174.755822 44.7676157,178.567523 47.1191406,180.917969 C49.4706655,183.268415 53.2823663,183.267541 55.6328125,180.916016 L92.1210938,144.425781 C93.2500913,143.297202 93.8843908,141.76627 93.8843908,140.169922 C93.8843908,138.573574 93.2500913,137.042641 92.1210938,135.914062 L92.1210937,135.914062 Z" id="Shape"></path>
        </g>
    </g>
</svg>