<?xml version="1.0" encoding="UTF-8"?>
<svg width="200px" height="120px" viewBox="0 0 200 120" version="1.1" xmlns="http://www.w3.org/2000/svg" xmlns:xlink="http://www.w3.org/1999/xlink">
    <title>invision</title>
    <g id="Page-1" stroke="none" stroke-width="1" fill="none" fill-rule="evenodd">
        <g id="invision" fill="#5F6368" fill-rule="nonzero">
            <path d="M99.678937,86.4638283 C77.5102774,86.4638283 56.3720203,79.8611958 38.5250489,67.2862837 C29.8547101,61.2125874 22.1745359,53.8361108 15.7561547,45.4177413 C9.2745197,36.9005598 4.21382829,27.390649 0.770300938,17.2567409 C-1.3305197,11.0843298 1.60062521,4.22164912 7.27284091,1.95076202 C12.9650645,-0.320125088 19.2775302,2.85111372 21.3783509,9.02352485 C32.2425947,41.116061 63.6848769,62.6344666 99.7089488,62.6344666 L99.9790543,62.6344666 C135.813052,62.5344275 168.085658,40.0756545 178.489723,8.05314572 C180.520516,1.85072286 186.762954,-1.410551 192.48519,0.760296952 C198.197421,2.96115662 201.188589,9.7438061 199.187808,15.9662368 C195.859233,26.210068 190.878284,35.8408039 184.442048,44.477374 C178.087048,53.0229919 170.43898,60.525929 161.773193,66.716061 C143.775605,79.5803217 122.201523,86.4859871 100.079093,86.4638283 L99.678937,86.4638283 Z" id="Path"></path>
            <path d="M12.0046893,91.3656897 C9.64376706,91.3656897 7.24282919,90.5353653 5.25205158,88.8447049 C0.470183705,84.8031261 -0.36014068,77.2901914 3.35130914,72.128175 L25.4299335,41.4762016 C29.1513872,36.2741696 36.0640875,35.3738179 40.8159437,39.4254006 C45.6078156,43.4669794 46.4381399,50.9699102 42.7166862,56.1319265 L20.6380618,86.7839 C18.6799501,89.6280146 15.4575766,91.3381502 12.0046893,91.3656897 L12.0046893,91.3656897 Z M66.275889,119.376632 C65.4455646,119.376632 64.5752246,119.276592 63.7549042,119.056506 C57.8726064,117.535912 54.2111762,111.113404 55.6117233,104.720907 L63.454787,68.766862 C64.8553341,62.3843688 70.7576396,58.4128175 76.6499414,59.9234076 C82.5322392,61.4440016 86.1836655,67.8665104 84.7931223,74.2590074 L76.9500586,110.213052 C75.7495897,115.695193 71.2278233,119.376632 66.275889,119.376632 L66.275889,119.376632 Z M139.03431,119.526721 C134.252442,119.526721 129.860727,116.09535 128.500195,110.863306 L118.826417,73.9288784 C117.165768,67.6164127 120.557093,61.0138335 126.369363,59.2031263 C132.191637,57.4024229 138.274013,61.083861 139.934662,67.4063306 L149.608441,104.32075 C151.269089,110.64322 147.877765,117.255803 142.05549,119.056506 C141.079294,119.370597 140.059788,119.529262 139.03431,119.526721 L139.03431,119.526721 Z M188.993826,94.1167644 C185.632513,94.1167644 182.341227,92.4561157 180.190387,89.3148886 L156.981321,55.5216882 C153.359906,50.2496287 154.360297,42.7767096 159.212192,38.8451739 C164.064087,34.9136381 170.946776,35.9940601 174.568191,41.2661196 L197.767253,75.0493162 C201.388668,80.3213756 200.388277,87.7942947 195.536381,91.7258304 C193.693802,93.2487345 191.384173,94.092773 188.993826,94.1167644 Z" id="Shape"></path>
        </g>
    </g>
</svg>