<?xml version="1.0" standalone="no"?>
<svg class="icon" width="200px" height="150.04px" viewBox="0 0 1365 1024" version="1.1"
     xmlns="http://www.w3.org/2000/svg">
    <path fill="#707070"
          d="M451.157333 901.12a366.506667 366.506667 0 1 0 0-733.013333 366.506667 366.506667 0 0 0 0 733.013333z m0-89.258667a277.333333 277.333333 0 1 1 0-554.666666 277.333333 277.333333 0 0 1 0 554.666666zM877.824 901.12a366.506667 366.506667 0 1 0 0-733.013333 366.506667 366.506667 0 0 0 0 733.013333z m0-89.258667a277.333333 277.333333 0 1 1 0-554.666666 277.333333 277.333333 0 0 1 0 554.666666z"/>
</svg>