<?xml version="1.0" encoding="UTF-8"?>
<svg width="200px" height="150px" viewBox="0 0 200 150" version="1.1" xmlns="http://www.w3.org/2000/svg" xmlns:xlink="http://www.w3.org/1999/xlink">
    <title>json</title>
    <g id="Page-1" stroke="none" stroke-width="1" fill="none" fill-rule="evenodd">
        <g id="json" fill="#017BA8" fill-rule="nonzero">
            <path d="M41.6666666,0 L58.3333334,0 L58.3333334,16.6666666 L41.6666666,16.6666666 L41.6666666,58.3333334 C41.6666666,67.5380792 34.2047458,75 25,75 C34.2047458,75 41.6666666,82.4619208 41.6666666,91.6666666 L41.6666666,133.333333 L58.3333334,133.333333 L58.3333334,150 L41.6666666,150 C32.75,147.75 25,142.5 25,133.333333 L25,100 C25,95.5797252 23.2440527,91.3404933 20.1184464,88.214887 C16.9928401,85.0892807 12.7536082,83.3333334 8.3333334,83.3333334 L0,83.3333334 L0,66.6666666 L8.3333334,66.6666666 C17.5380792,66.6666666 25,59.2047458 25,50 L25,16.6666666 C25,7.46192081 32.4619208,0 41.6666666,0 M158.333333,0 C167.538079,0 175,7.46192081 175,16.6666666 L175,50 C175,59.2047458 182.461921,66.6666666 191.666667,66.6666666 L200,66.6666666 L200,83.3333334 L191.666667,83.3333334 C187.246392,83.3333334 183.00716,85.0892807 179.881554,88.214887 C176.755947,91.3404933 175,95.5797252 175,100 L175,133.333333 C175,142.538079 167.538079,150 158.333333,150 L141.666667,150 L141.666667,133.333333 L158.333333,133.333333 L158.333333,91.6666666 C158.333333,87.2463918 160.089281,83.0071599 163.214887,79.8815536 C166.340493,76.7559473 170.579725,75 175,75 C170.579725,75 166.340493,73.2440527 163.214887,70.1184464 C160.089281,66.9928401 158.333333,62.7536082 158.333333,58.3333334 L158.333333,16.6666666 L141.666667,16.6666666 L141.666667,0 L158.333333,0 M100,100 C104.602373,100 108.333333,103.73096 108.333333,108.333333 C108.333333,112.935706 104.602373,116.666667 100,116.666667 C95.3976271,116.666667 91.6666666,112.935706 91.6666666,108.333333 C91.6666666,103.73096 95.397627,100 100,100 M66.6666666,100 C68.876804,100 70.99642,100.877974 72.5592232,102.440777 C74.1220263,104.00358 75,106.123196 75,108.333333 C75,112.935706 71.2690395,116.666667 66.6666666,116.666667 C62.0642938,116.666667 58.3333334,112.935706 58.3333334,108.333333 C58.3333334,103.730961 62.0642937,100 66.6666666,100 M133.333333,100 C137.935706,100 141.666667,103.730961 141.666667,108.333333 C141.666667,112.935706 137.935706,116.666667 133.333333,116.666667 C128.730961,116.666667 125,112.935706 125,108.333333 C125,103.73096 128.73096,100 133.333333,100 Z" id="Shape"></path>
        </g>
    </g>
</svg>