<?xml version="1.0" encoding="UTF-8"?>
<svg width="167px" height="84px" viewBox="0 0 167 84" version="1.1" xmlns="http://www.w3.org/2000/svg" xmlns:xlink="http://www.w3.org/1999/xlink">
    <title>link</title>
    <g id="Page-1" stroke="none" stroke-width="1" fill="none" fill-rule="evenodd">
        <g id="link" fill="#017BA8" fill-rule="nonzero">
            <path d="M15.8984375,41.796875 C15.8984375,27.546875 27.4817709,15.9635416 41.7317709,15.9635416 L75.0651041,15.9635416 L75.0651041,0.130208398 L41.7317709,0.130208398 C18.7317709,0.130208398 0.0651041016,18.796875 0.0651041016,41.796875 C0.0651041016,64.796875 18.7317707,83.4635416 41.7317709,83.4635416 L75.0651041,83.4635416 L75.0651041,67.6302084 L41.7317709,67.6302084 C27.4817709,67.6302084 15.8984375,56.046875 15.8984375,41.796875 L15.8984375,41.796875 Z M50.0651041,50.1302084 L116.731771,50.1302084 L116.731771,33.4635416 L50.0651041,33.4635416 L50.0651041,50.1302084 Z M125.065104,0.130208398 L91.7317709,0.130208398 L91.7317709,15.9635416 L125.065104,15.9635416 C139.315104,15.9635416 150.898437,27.546875 150.898437,41.796875 C150.898437,56.046875 139.315104,67.6302084 125.065104,67.6302084 L91.7317709,67.6302084 L91.7317709,83.4635416 L125.065104,83.4635416 C148.065104,83.4635416 166.731771,64.796875 166.731771,41.796875 C166.731771,18.796875 148.065104,0.130208398 125.065104,0.130208398 Z" id="Shape"></path>
        </g>
    </g>
</svg>