<?xml version="1.0" encoding="UTF-8"?>
<svg width="154px" height="151px" viewBox="0 0 154 151" version="1.1" xmlns="http://www.w3.org/2000/svg" xmlns:xlink="http://www.w3.org/1999/xlink">
    <title>logo</title>
    <g id="Page-1" stroke="none" stroke-width="1" fill="none" fill-rule="evenodd">
        <g id="logo" fill="#017BA8" fill-rule="nonzero">
            <path d="M150.234375,18.515625 L98.984375,18.515625 L98.984375,28.0078125 L114.082031,28.0078125 L114.082031,43.0078125 L98.984375,43.0078125 L98.984375,47.7929688 L114.082031,47.7929688 L114.082031,62.8125 L98.984375,62.8125 L98.984375,67.734375 L114.082031,67.734375 L114.082031,81.9335938 L98.984375,81.9335938 L98.984375,87.6367188 L114.082031,87.6367188 L114.082031,101.875 L98.984375,101.875 L98.984375,107.578125 L114.082031,107.578125 L114.082031,121.894531 L98.984375,121.894531 L98.984375,132.34375 L150.234375,132.34375 C151.035156,132.109375 151.71875,131.152344 152.265625,129.492188 C152.8125,127.8125 153.085938,126.464844 153.085938,125.429688 L153.085938,20.2539062 C153.085938,19.4335937 152.8125,18.9453125 152.265625,18.7695312 C151.601562,18.59375 150.917969,18.515625 150.234375,18.515625 L150.234375,18.515625 Z M143.574219,121.855469 L119.003906,121.855469 L119.003906,107.558594 L143.59375,107.558594 L143.574219,121.855469 L143.574219,121.855469 Z M143.574219,101.855469 L119.003906,101.855469 L119.003906,87.5976563 L143.59375,87.5976563 L143.574219,101.855469 L143.574219,101.855469 Z M143.574219,81.9140625 L119.003906,81.9140625 L119.003906,67.7734375 L143.59375,67.7734375 L143.574219,81.9140625 L143.574219,81.9140625 Z M143.574219,62.8125 L119.003906,62.8125 L119.003906,47.8125 L143.59375,47.8125 L143.574219,62.8125 L143.574219,62.8125 Z M143.574219,42.9296875 L119.003906,42.9296875 L119.003906,28.0078125 L143.59375,28.0078125 L143.59375,43.0273438 L143.574219,42.9296875 L143.574219,42.9296875 Z M0.1171875,16.1523438 L0.1171875,134.6875 L90.3710938,150.292969 L90.3710938,0.15625 L0.1171875,16.2109375 L0.1171875,16.1523438 Z" id="Shape"></path>
        </g>
    </g>
</svg>