<?xml version="1.0" encoding="UTF-8"?>
<svg width="126px" height="126px" viewBox="0 0 126 126" version="1.1" xmlns="http://www.w3.org/2000/svg" xmlns:xlink="http://www.w3.org/1999/xlink">
    <title>manage</title>
    <g id="Page-1" stroke="none" stroke-width="1" fill="none" fill-rule="evenodd">
        <g id="manage" fill="#017BA8" fill-rule="nonzero">
            <path d="M115.898438,74.5703125 C109.101563,63.203125 113.183594,48.6523437 125.019531,42.03125 L112.285156,20.7617187 C108.652344,22.8125 104.433594,24.0039062 99.921875,24.0039062 C86.3085938,24.0039062 75.2734375,13.3007812 75.2734375,0.078125 L49.8046875,0.078125 C49.84375,4.16015625 48.7890625,8.28125 46.5234375,12.0703125 C39.7265625,23.4375 24.609375,27.2851562 12.7539062,20.7226562 L0.0390625,41.9921875 C3.7109375,44.0039062 6.89453125,46.9335938 9.140625,50.703125 C15.9179688,62.0507813 11.8554687,76.5625 0.05859375,83.2226563 L12.7929688,104.492188 C16.4257812,102.441406 20.625,101.289063 25.1171875,101.289063 C38.671875,101.289063 49.6875,111.914063 49.7460938,125.078125 L75.234375,125.078125 C75.2148438,121.035156 76.2695312,116.953125 78.515625,113.203125 C85.2929688,101.855469 100.390625,98.0078125 112.226563,104.53125 L124.960938,83.2617188 C121.308594,81.25 118.164062,78.3203125 115.898438,74.5703125 Z M62.5390625,90.3515625 C48.046875,90.3515625 34.765625,76.5625 34.765625,62.578125 C34.765625,48.6132812 48.046875,34.8046875 62.5390625,34.8046875 C77.03125,34.8046875 90.3125,48.59375 90.3125,62.578125 C90.3125,76.5429688 77.03125,90.3515625 62.5390625,90.3515625 Z" id="Shape"></path>
        </g>
    </g>
</svg>