<?xml version="1.0" encoding="UTF-8"?>
<svg width="191px" height="191px" viewBox="0 0 191 191" version="1.1" xmlns="http://www.w3.org/2000/svg" xmlns:xlink="http://www.w3.org/1999/xlink">
    <title>model</title>
    <g id="Page-1" stroke="none" stroke-width="1" fill="none" fill-rule="evenodd">
        <g id="model" fill="#ffffff" fill-rule="nonzero">
            <path d="M101.397187,174.277188 L101.397187,75.6671875 L177.117188,45.5571875 L177.117188,144.777187 L101.397187,174.277188 L101.397187,174.277188 Z M13.1171875,144.777188 L13.1171875,45.3771875 L88.4171875,75.3171875 L88.4171875,174.107188 L13.1171875,144.777188 Z M95.3371875,13.4571875 L164.667187,36.5271875 C164.667187,36.5271875 95.3971875,63.5471875 95.1171875,63.5871875 L26.0171875,36.5171875 L95.3271875,13.4471875 L95.3371875,13.4571875 Z M183.637187,29.0371875 C183.567188,29.0371875 97.3871875,0.4371875 97.3871875,0.4371875 C96.0543095,0.00740705411 94.6200655,0.00740705411 93.2871875,0.4371875 C93.2871875,0.4371875 6.7871875,29.0371875 6.6171875,29.0371875 C3.03124249,29.0427043 0.127186515,31.9512382 0.127186515,35.5371875 L0.127186515,149.217187 C0.127186515,151.897572 1.76971447,154.304002 4.2671875,155.277187 L92.5471875,189.667188 C93.2974216,189.968154 94.0988451,190.120967 94.9071875,190.117256 C94.9771875,190.117256 95.0471875,190.087187 95.1271865,190.087187 L95.3371875,190.117256 C96.1453449,190.117256 96.9463916,189.966231 97.6971875,189.667188 L185.997187,155.267187 C188.487327,154.292119 190.127187,151.891426 190.127187,149.217188 L190.127187,35.5371875 C190.127187,31.9473366 187.217038,29.0371875 183.627187,29.0371875 L183.637187,29.0371875 Z" id="Shape"></path>
        </g>
    </g>
</svg>