<?xml version="1.0" encoding="UTF-8"?>
<svg width="130px" height="130px" viewBox="0 0 130 130" version="1.1" xmlns="http://www.w3.org/2000/svg" xmlns:xlink="http://www.w3.org/1999/xlink">
    <title>number</title>
    <g id="Page-1" stroke="none" stroke-width="1" fill="none" fill-rule="evenodd">
        <g id="number" fill="#017BA8" fill-rule="nonzero">
            <path d="M122.753906,81.4453125 L95.1171875,81.4453125 L95.1171875,48.2421875 L122.753906,48.2421875 C126.523438,48.2421875 129.589844,45.1757813 129.589844,41.40625 C129.589844,37.6367187 126.523438,34.5703125 122.753906,34.5703125 L95.1171875,34.5703125 L95.1171875,6.93359375 C95.1171875,3.1640625 92.0507812,0.09765625 88.28125,0.09765625 C84.5117188,0.09765625 81.4453125,3.1640625 81.4453125,6.93359375 L81.4453125,34.5703125 L48.2421875,34.5703125 L48.2421875,6.93359375 C48.2421875,3.1640625 45.1757813,0.09765625 41.40625,0.09765625 C37.6367187,0.09765625 34.5703125,3.1640625 34.5703125,6.93359375 L34.5703125,34.5703125 L6.93359375,34.5703125 C3.1640625,34.5703125 0.09765625,37.6367187 0.09765625,41.40625 C0.09765625,45.1757813 3.1640625,48.2421875 6.93359375,48.2421875 L34.5703125,48.2421875 L34.5703125,81.4453125 L6.93359375,81.4453125 C3.1640625,81.4453125 0.09765625,84.5117188 0.09765625,88.28125 C0.09765625,92.0507812 3.1640625,95.1171875 6.93359375,95.1171875 L34.5703125,95.1171875 L34.5703125,122.753906 C34.5703125,126.523438 37.6367187,129.589844 41.40625,129.589844 C45.1757813,129.589844 48.2421875,126.523438 48.2421875,122.734375 L48.2421875,95.1171875 L81.4453125,95.1171875 L81.4453125,122.753906 C81.4453125,126.523438 84.5117188,129.589844 88.28125,129.589844 C92.0507812,129.589844 95.1171875,126.523438 95.1171875,122.734375 L95.1171875,95.1171875 L122.753906,95.1171875 C126.523438,95.1171875 129.589844,92.0507812 129.589844,88.28125 C129.589844,84.5117188 126.523438,81.4453125 122.753906,81.4453125 Z M48.2421875,81.4453125 L48.2421875,48.2421875 L81.4453125,48.2421875 L81.4453125,81.4453125 L48.2421875,81.4453125 Z" id="Shape"></path>
        </g>
    </g>
</svg>