<?xml version="1.0" encoding="UTF-8"?>
<svg width="157px" height="157px" viewBox="0 0 157 157" version="1.1" xmlns="http://www.w3.org/2000/svg" xmlns:xlink="http://www.w3.org/1999/xlink">
    <title>Group</title>
    <g id="Page-1" stroke="none" stroke-width="1" fill="none" fill-rule="evenodd">
        <g id="Group" fill-rule="nonzero">
            <path d="M78.125,120.831055 L92.4082031,103.687305 C92.7051045,103.330967 93.1449713,103.125 93.6087891,103.125 L104.299023,103.125 C104.905198,103.125 105.45663,103.475745 105.713774,104.024676 C105.970917,104.573606 105.887366,105.221731 105.499414,105.6875 L85.5039062,129.6875 L105.499414,153.6875 C105.887388,154.153296 105.970925,154.801466 105.713732,155.350413 C105.456539,155.899359 104.905038,156.250195 104.298828,156.250195 L93.6085937,156.250195 C93.144744,156.250195 92.7048717,156.043911 92.4080078,155.6875 L78.125,138.544141 L63.8417969,155.687891 C63.5448955,156.044228 63.1050287,156.250195 62.6412109,156.250195 L51.9511719,156.250195 C51.3449973,156.250195 50.7935655,155.89945 50.5364217,155.35052 C50.2792779,154.801589 50.3628295,154.153465 50.7507813,153.687695 L70.7460938,129.6875 L50.7505859,105.6875 C50.3626116,105.221704 50.2790747,104.573534 50.5362678,104.024587 C50.7934609,103.475641 51.344962,103.125 51.9511719,103.125 L62.6414063,103.125 C63.105256,103.125 63.5451283,103.331089 63.8419922,103.6875 L78.125,120.830859 L78.125,120.831055 Z" id="Path" fill="#E02020"></path>
            <path d="M93.75,1.5625 L93.75,89.0625 C93.75,90.1041667 93.2291667,90.625 92.1875,90.625 L64.0625,90.625 C63.0208333,90.625 62.5,90.1041667 62.5,89.0625 L62.5,1.5625 C62.5,0.520833333 63.0208333,0 64.0625,0 L92.1875,0 C93.2291667,0 93.75,0.520833333 93.75,1.5625 Z" id="Path" fill="#017BA8"></path>
            <path d="M141.40625,53.125 L141.40625,4.6875 C141.40625,3.82455508 142.105805,3.125 142.96875,3.125 L154.6875,3.125 C155.550445,3.125 156.25,3.82455508 156.25,4.6875 L156.25,61.71875 C156.25,65.1705078 153.451758,67.96875 150,67.96875 L109.375,67.96875 C108.512055,67.96875 107.8125,67.2691949 107.8125,66.40625 L107.8125,54.6875 C107.8125,53.8245551 108.512055,53.125 109.375,53.125 L141.40625,53.125 Z M14.84375,53.125 L14.84375,4.6875 C14.84375,3.82455508 14.1441949,3.125 13.28125,3.125 L1.5625,3.125 C0.699555078,3.125 0,3.82455508 0,4.6875 L0,61.71875 C0,65.1705078 2.79824219,67.96875 6.25,67.96875 L46.875,67.96875 C47.7379449,67.96875 48.4375,67.2691949 48.4375,66.40625 L48.4375,54.6875 C48.4375,53.8245551 47.7379449,53.125 46.875,53.125 L14.84375,53.125 Z" id="Shape" fill="#017BA8"></path>
        </g>
    </g>
</svg>