<?xml version="1.0" standalone="no"?><!DOCTYPE svg PUBLIC "-//W3C//DTD SVG 1.1//EN"
        "http://www.w3.org/Graphics/SVG/1.1/DTD/svg11.dtd">
<svg t="1603863805767" class="icon" viewBox="0 0 1024 1024" version="1.1" xmlns="http://www.w3.org/2000/svg" p-id="6191"
     xmlns:xlink="http://www.w3.org/1999/xlink" width="200" height="200">
    <defs>
        <style type="text/css"></style>
    </defs>
    <path d="M768 474.453333c-22.186667 0-44.373333 5.12-64.853333 15.36l0-162.133333c0-10.24-6.826667-17.066667-17.066667-17.066667l-162.133333 0c10.24-20.48 15.36-42.666667 15.36-64.853333 0-76.8-63.146667-139.946667-139.946667-139.946667-76.8 0-139.946667 63.146667-139.946667 139.946667 0 22.186667 5.12 44.373333 15.36 64.853333L114.346667 310.613333c-10.24 0-17.066667 6.826667-17.066667 17.066667l0 180.906667c0 6.826667 3.413333 11.946667 8.533333 15.36 5.12 3.413333 11.946667 3.413333 17.066667 0 15.36-8.533333 34.133333-13.653333 52.906667-13.653333 58.026667 0 105.813333 47.786667 105.813333 105.813333s-47.786667 105.813333-105.813333 105.813333c-18.773333 0-37.546667-5.12-52.906667-13.653333-5.12-3.413333-11.946667-3.413333-17.066667 0-5.12 3.413333-8.533333 8.533333-8.533333 15.36l0 180.906667c0 10.24 6.826667 17.066667 17.066667 17.066667l573.44 0c10.24 0 17.066667-6.826667 17.066667-17.066667l0-162.133333c20.48 10.24 42.666667 15.36 64.853333 15.36 76.8 0 139.946667-63.146667 139.946667-139.946667S846.506667 474.453333 768 474.453333zM768 720.213333c-25.6 0-51.2-10.24-69.973333-27.306667-5.12-5.12-11.946667-5.12-18.773333-3.413333s-10.24 8.533333-10.24 15.36l0 177.493333L131.413333 882.346667l0-136.533333c13.653333 5.12 29.013333 6.826667 44.373333 6.826667 76.8 0 139.946667-63.146667 139.946667-139.946667s-63.146667-139.946667-139.946667-139.946667c-15.36 0-30.72 1.706667-44.373333 6.826667l0-136.533333 177.493333 0c6.826667 0 13.653333-3.413333 15.36-10.24 3.413333-6.826667 1.706667-13.653333-3.413333-18.773333-17.066667-18.773333-27.306667-44.373333-27.306667-69.973333 0-58.026667 47.786667-105.813333 105.813333-105.813333s105.813333 47.786667 105.813333 105.813333c0 25.6-10.24 51.2-27.306667 69.973333-5.12 5.12-5.12 11.946667-3.413333 18.773333 3.413333 6.826667 8.533333 10.24 15.36 10.24l177.493333 0 0 177.493333c0 6.826667 3.413333 13.653333 10.24 15.36 6.826667 3.413333 13.653333 1.706667 18.773333-3.413333 18.773333-17.066667 44.373333-27.306667 69.973333-27.306667 58.026667 0 105.813333 47.786667 105.813333 105.813333S827.733333 720.213333 768 720.213333z"
          p-id="6192" fill="#007afe"></path>
</svg>