<?xml version="1.0" encoding="UTF-8"?>
<svg width="162px" height="162px" viewBox="0 0 162 162" version="1.1" xmlns="http://www.w3.org/2000/svg" xmlns:xlink="http://www.w3.org/1999/xlink">
    <title>rename</title>
    <g id="Page-1" stroke="none" stroke-width="1" fill="none" fill-rule="evenodd">
        <g id="rename" fill="#707070" fill-rule="nonzero">
            <path d="M149.867578,81.1355469 C149.867578,77.9708984 152.433203,75.4054687 155.598047,75.4054687 C158.762695,75.4054687 161.328125,77.9708984 161.328125,81.1355469 L161.328125,146.782031 C161.328125,154.81582 154.815625,161.328125 146.782227,161.328125 L14.5458984,161.328125 C6.5125,161.328125 0,154.815625 0,146.782227 L0,14.5458984 C0,6.5125 6.5125,0 14.5458984,0 L81.3876953,0 C84.5523438,0 87.1177734,2.56542969 87.1177734,5.73027344 C87.1177734,8.89492188 84.5523438,11.4605469 81.3875,11.4605469 L14.5458984,11.4605469 C12.8419922,11.4605469 11.4605469,12.8419922 11.4605469,14.5458984 L11.4605469,146.782227 C11.4605469,148.486133 12.8419922,149.867578 14.5458984,149.867578 L146.782227,149.867578 C148.486133,149.867578 149.867578,148.486133 149.867578,146.782227 L149.867578,81.1357422 L149.867578,81.1355469 Z M151.520898,12.8675781 C153.758789,15.1054688 153.758789,18.7335937 151.520898,20.9714844 L47.4185547,125.073828 C45.1808594,127.311523 41.5527344,127.311523 39.3150391,125.073828 C37.0771484,122.835938 37.0771484,119.207813 39.3150391,116.969922 L143.417188,12.8675781 C145.655078,10.6298828 149.283203,10.6298828 151.520898,12.8675781 Z" id="Shape"></path>
        </g>
    </g>
</svg>