<?xml version="1.0" encoding="UTF-8"?>
<svg width="171px" height="171px" viewBox="0 0 171 171" version="1.1" xmlns="http://www.w3.org/2000/svg" xmlns:xlink="http://www.w3.org/1999/xlink">
    <title>sheet-schema</title>
    <g id="Page-1" stroke="none" stroke-width="1" fill="none" fill-rule="evenodd">
        <g id="sheet-schema" fill="#017BA8" fill-rule="nonzero">
            <path d="M145.975446,0.118303516 C159.775446,0.118303516 170.975446,11.3183035 170.975446,25.1183035 L170.975446,145.975446 C170.975446,159.782565 159.782565,170.975446 145.975446,170.975446 L25.1183035,170.975446 C11.3111848,170.975446 0.118303516,159.782565 0.118303516,145.975446 L0.118303516,25.1183035 C0.118303516,11.3183035 11.3183035,0.118303516 25.1183035,0.118303516 L145.975446,0.118303516 Z M145.975446,16.7897322 L25.1183035,16.7897322 C22.9069517,16.7897322 20.7863792,17.6691617 19.2240578,19.2341629 C17.6617364,20.7991641 16.7859392,22.9212407 16.78972,25.1325893 L16.78972,145.961161 C16.78972,150.561161 20.5325895,154.289732 25.1325893,154.289732 L145.961161,154.289732 C150.560904,154.289732 154.289744,150.560904 154.289744,145.961161 L154.289744,25.1325893 C154.293525,22.9212407 153.417728,20.7991641 151.855407,19.2341629 C150.293085,17.6691617 148.172513,16.7897322 145.961161,16.7897322 L145.975446,16.7897322 Z M43.8611607,112.632589 C47.7119816,112.430821 51.3598543,114.370465 53.3458817,117.675798 C55.331909,120.981131 55.331909,125.112619 53.3458817,128.417952 C51.3598543,131.723285 47.7119816,133.662929 43.8611607,133.461161 C38.3212764,133.170891 33.9782592,128.594359 33.9782592,123.046875 C33.9782592,117.499391 38.3212764,112.922859 43.8611607,112.632589 Z M129.289732,114.718304 C133.889475,114.718304 137.618304,118.447132 137.618304,123.046875 C137.618304,127.646618 133.889475,131.375446 129.289732,131.375446 L77.2040178,131.375446 C72.6042748,131.375446 68.8754463,127.646618 68.8754463,123.046875 C68.8754463,118.447132 72.6042748,114.718304 77.2040178,114.718304 L129.275446,114.718304 L129.289732,114.718304 Z M43.8611607,75.1183035 C47.7119816,74.9165348 51.3598543,76.8561789 53.3458817,80.161512 C55.331909,83.4668452 55.331909,87.5983334 53.3458817,90.9036665 C51.3598543,94.2089996 47.7119816,96.1486437 43.8611607,95.946875 C38.3212764,95.6566056 33.9782592,91.080073 33.9782592,85.5325893 C33.9782592,79.9851056 38.3212764,75.4085729 43.8611607,75.1183035 L43.8611607,75.1183035 Z M129.289732,77.2040178 C133.889475,77.2040178 137.618304,80.9328462 137.618304,85.5325893 C137.618304,90.1323323 133.889475,93.8611607 129.289732,93.8611607 L77.2040178,93.8611607 C72.6042748,93.8611607 68.8754463,90.1323323 68.8754463,85.5325893 C68.8754463,80.9328462 72.6042748,77.2040178 77.2040178,77.2040178 L129.275446,77.2040178 L129.289732,77.2040178 Z M43.8611607,37.6183035 C47.7119816,37.4165348 51.3598543,39.3561789 53.3458817,42.661512 C55.331909,45.9668452 55.331909,50.0983334 53.3458817,53.4036665 C51.3598543,56.7089996 47.7119816,58.6486437 43.8611607,58.446875 C38.3212764,58.1566056 33.9782592,53.580073 33.9782592,48.0325893 C33.9782592,42.4851056 38.3212764,37.9085729 43.8611607,37.6183035 L43.8611607,37.6183035 Z M129.289732,39.7040178 C133.889475,39.7040178 137.618303,43.4328463 137.618303,48.0325893 C137.618303,52.6323322 133.889475,56.3611607 129.289732,56.3611607 L77.2040178,56.3611607 C72.6042748,56.3611607 68.8754463,52.6323323 68.8754463,48.0325893 C68.8754463,43.4328462 72.6042748,39.7040178 77.2040178,39.7040178 L129.275446,39.7040178 L129.289732,39.7040178 Z" id="Shape"></path>
        </g>
    </g>
</svg>