<?xml version="1.0" encoding="UTF-8"?>
<svg width="195px" height="124px" viewBox="0 0 195 124" version="1.1" xmlns="http://www.w3.org/2000/svg" xmlns:xlink="http://www.w3.org/1999/xlink">
    <title>sheet-join</title>
    <defs>
        <filter x="0.0%" y="0.0%" width="100.0%" height="100.0%" filterUnits="objectBoundingBox" id="filter-1">
            <feGaussianBlur stdDeviation="0" in="SourceGraphic"></feGaussianBlur>
        </filter>
    </defs>
    <g id="Page-1" stroke="none" stroke-width="1" fill="none" fill-rule="evenodd">
        <g id="sheet-join">
            <path d="M132.433054,123.606482 C166.55658,123.606482 194.219055,95.9440064 194.219055,61.8204804 C194.219055,27.6969544 166.55658,0.0344787611 132.433054,0.0344787611 C98.3095278,0.0344787611 70.6470521,27.6969544 70.6470521,61.8204804 C70.6470521,95.9440064 98.3095277,123.606482 132.433054,123.606482 Z" id="right-circle" fill="#F6C253"></path>
            <path d="M61.7860016,123.572003 C95.9095277,123.572003 123.572003,95.9095277 123.572003,61.7860016 C123.572003,27.6624756 95.9095276,2.13162821e-14 61.7860016,2.13162821e-14 C27.6624757,2.13162821e-14 3.55271368e-14,27.6624756 3.55271368e-14,61.7860016 C3.55271368e-14,95.9095277 27.6624756,123.572003 61.7860016,123.572003 Z" id="left-circle" fill="#41C3F1"></path>
            <path d="M120.664325,61.8204804 C120.678208,80.3452823 111.954959,97.7917817 97.126767,108.895529 C82.2985753,97.7917817 73.5753255,80.3452823 73.5892094,61.8204804 C73.5753255,43.2956785 82.2985753,25.8491791 97.126767,14.7454316 C111.954959,25.8491791 120.678208,43.2956785 120.664325,61.8204804 Z" id="inner" fill="#707070" fill-rule="nonzero"></path>
            <path d="M61.8204804,123.606482 C95.9440064,123.606482 123.606482,95.9440064 123.606482,61.8204804 C123.606482,27.6969544 95.9440064,0.0344787611 61.8204804,0.0344787611 C27.6969544,0.0344787611 0.0344787611,27.6969544 0.0344787611,61.8204804 C0.0344787611,95.9440064 27.6969544,123.606482 61.8204804,123.606482 Z M61.8204804,117.722101 C30.9468679,117.722101 5.91885992,92.6940929 5.91885992,61.8204804 C5.91885992,30.9468679 30.9468679,5.91885992 61.8204804,5.91885992 C92.6940929,5.91885992 117.722101,30.9468679 117.722101,61.8204804 C117.722101,92.6940929 92.6940929,117.722101 61.8204804,117.722101 Z" id="left" fill="#707070" fill-rule="nonzero"></path>
            <path d="M132.433054,123.606482 C166.55658,123.606482 194.219055,95.9440064 194.219055,61.8204804 C194.219055,27.6969544 166.55658,0.0344787611 132.433054,0.0344787611 C98.3095278,0.0344787611 70.6470521,27.6969544 70.6470521,61.8204804 C70.6470521,95.9440064 98.3095277,123.606482 132.433054,123.606482 Z M132.433054,117.722101 C101.559441,117.722101 76.5314332,92.6940929 76.5314332,61.8204804 C76.5314332,30.9468679 101.559441,5.91885992 132.433054,5.91885992 C163.306666,5.91885992 188.334674,30.9468679 188.334674,61.8204804 C188.334674,92.6940929 163.306666,117.722101 132.433054,117.722101 Z" id="right" fill="#707070" fill-rule="nonzero" filter="url(#filter-1)"></path>
        </g>
    </g>
</svg>