<?xml version="1.0" encoding="UTF-8"?>
<svg width="153px" height="169px" viewBox="0 0 153 169" version="1.1" xmlns="http://www.w3.org/2000/svg" xmlns:xlink="http://www.w3.org/1999/xlink">
    <title>sheet-node</title>
    <g id="Page-1" stroke="none" stroke-width="1" fill="none" fill-rule="evenodd">
        <g id="sheet-node" fill-rule="nonzero">
            <path d="M152.682977,47.7565789 L152.682977,158.059211 C152.682977,163.872734 147.970185,168.585526 142.156661,168.585526 L10.5777139,168.585526 C4.76419017,168.585526 0.0513980469,163.872734 0.0513980469,158.059211 L0.0513980469,10.6907895 C0.0513980469,4.87726575 4.76419017,0.164473633 10.5777139,0.164473633 L105.593503,0.164473633 L152.682977,47.7565789 Z" id="Path" fill="#017BA8"></path>
            <path d="M15.8408717,71.2171053 L47.4198191,71.2171053 L47.4198191,81.7434211 L15.8408717,81.7434211 L15.8408717,71.2171053 Z M15.8408717,102.796053 L47.4198191,102.796053 L47.4198191,113.322368 L15.8408717,113.322368 L15.8408717,102.796053 Z M15.8408717,134.375 L47.4198191,134.375 L47.4198191,144.901316 L15.8408717,144.901316 L15.8408717,134.375 Z M15.8408717,39.6381578 L47.4198191,39.6381578 L47.4198191,50.1644736 L15.8408717,50.1644736 L15.8408717,39.6381578 Z M105.314556,71.2171053 L136.893503,71.2171053 L136.893503,81.7434211 L105.314556,81.7434211 L105.314556,71.2171053 Z M105.314556,102.796053 L136.893503,102.796053 L136.893503,113.322368 L105.314556,113.322368 L105.314556,102.796053 Z M105.314556,134.375 L136.893503,134.375 L136.893503,144.901316 L105.314556,144.901316 L105.314556,134.375 Z M60.5777139,71.2171053 L92.1566611,71.2171053 L92.1566611,81.7434211 L60.5777139,81.7434211 L60.5777139,71.2171053 Z M60.5777139,102.796053 L92.1566611,102.796053 L92.1566611,113.322368 L60.5777139,113.322368 L60.5777139,102.796053 Z M60.5777139,134.375 L92.1566611,134.375 L92.1566611,144.901316 L60.5777139,144.901316 L60.5777139,134.375 Z M60.5777139,39.6381578 L92.1566611,39.6381578 L92.1566611,50.1644736 L60.5777139,50.1644736 L60.5777139,39.6381578 Z" id="Shape" fill-opacity="0.1" fill="#FFFFFF"></path>
            <path d="M105.314556,0.164473633 L152.682977,47.5328947 L115.840872,47.5328947 C110.027348,47.5328947 105.314556,42.8201026 105.314556,37.0065789 L105.314556,0.164473633 Z" id="Path" fill-opacity="0.4" fill="#FFFFFF"></path>
            <path d="M78.3092928,124.880263 C85.0145559,124.880263 90.246135,123.480263 93.9303453,120.827632 C97.6145559,118.101316 99.4566611,114.343421 99.4566611,109.627632 C99.4566611,104.764474 97.1724506,101.006579 92.6040297,98.2802631 C90.5408719,97.1013156 85.9724508,95.3328947 78.8250822,93.1223684 C73.9619244,91.575 70.9408717,90.4697367 69.8356086,89.8802631 C67.3303455,88.5539473 66.151398,86.711842 66.151398,84.5013158 C66.151398,81.9960527 67.182977,80.1539475 69.3935033,79.0486842 C71.1619244,78.0907895 73.6671875,77.6486842 76.982977,77.6486842 C80.8145559,77.6486842 83.7619244,78.311842 85.6777139,79.7855264 C87.5935033,81.1855264 88.9935033,83.5434211 89.7303453,86.7855264 L98.2777139,86.7855264 C97.7619244,81.038158 95.6250822,76.7644738 91.9408717,74.0381578 C88.4777139,71.4592104 83.6145559,70.2065789 77.4250822,70.2065789 C71.751398,70.2065789 67.1092928,71.4592105 63.4250822,74.0381578 C59.4461348,76.6907895 57.5303453,80.375 57.5303453,85.0171053 C57.5303453,89.6592105 59.5198189,93.1960527 63.5724506,95.6276316 C65.1198189,96.5118422 69.1724506,97.9855264 75.6566611,100.048684 C81.4777137,101.817105 84.8671875,102.996053 85.8987664,103.511842 C89.1408717,105.132895 90.8356086,107.343421 90.8356086,110.143421 C90.8356086,112.353947 89.6566611,114.048684 87.446135,115.375 C85.2356086,116.627632 82.1408719,117.290789 78.3092928,117.290789 C73.9619244,117.290789 70.7935033,116.480263 68.7303453,115.006579 C66.4461348,113.311842 65.0461348,110.438158 64.4566611,106.459211 L55.9092928,106.459211 C56.2777139,113.164474 58.7092928,118.027632 63.1303453,121.122368 C66.7408717,123.627631 71.8250822,124.880263 78.3092928,124.880263 Z" id="Path" fill="#FFFFFF"></path>
        </g>
    </g>
</svg>