<?xml version="1.0" encoding="UTF-8"?>
<svg width="163px" height="163px" viewBox="0 0 163 163" version="1.1" xmlns="http://www.w3.org/2000/svg" xmlns:xlink="http://www.w3.org/1999/xlink">
    <title>sheet</title>
    <g id="Page-1" stroke="none" stroke-width="1" fill="none" fill-rule="evenodd">
        <g id="sheet" fill="#ffffff" fill-rule="nonzero">
            <path d="M125.3,0 L6.0875,0 C2.4625,0 0,2.4625 0,5.475 L0,157.0375 C0,160.0375 2.4625,162.5 5.475,162.5 L157.0375,162.5 C160.0375,162.5 162.5,160.0375 162.5,157.025 L162.5,37.5 L125.3,0 Z M75,87.5 L75,112.5 L50,112.5 L50,87.5 L75,87.5 Z M50,75 L50,50 L75,50 L75,75 L50,75 Z M87.5,87.5 L112.5,87.5 L112.5,112.5 L87.5,112.5 L87.5,87.5 Z M87.5,75 L87.5,50 L112.5,50 L112.5,75 L87.5,75 Z M112.5,12.5 L112.5,37.5 L87.5,37.5 L87.5,12.5 L112.5,12.5 Z M75,12.5 L75,37.5 L50,37.5 L50,12.5 L75,12.5 Z M12.5,12.5 L37.5,12.5 L37.5,37.5 L12.5,37.5 L12.5,12.5 Z M12.5,50 L37.5,50 L37.5,75 L12.5,75 L12.5,50 Z M12.5,87.5 L37.5,87.5 L37.5,112.5 L12.5,112.5 L12.5,87.5 Z M12.5,150 L12.5,125 L37.5,125 L37.5,150 L12.5,150 Z M50,150 L50,125 L75,125 L75,150 L50,150 Z M87.5,150 L87.5,125 L112.5,125 L112.5,150 L87.5,150 Z M150,150 L125,150 L125,125 L150,125 L150,150 Z M150,112.5 L125,112.5 L125,87.5 L150,87.5 L150,112.5 Z M150,75 L125,75 L125,50 L150,50 L150,75 Z M125,37.5 L125,12.5 L150,37.5 L125,37.5 Z" id="Shape"></path>
        </g>
    </g>
</svg>