<?xml version="1.0" standalone="no"?>
<svg class="icon" width="200px" height="200.00px" viewBox="0 0 1024 1024" version="1.1"
     xmlns="http://www.w3.org/2000/svg">
    <path fill="#707070"
          d="M902.85 517.21H654.02v-63.84h248.83l-52.11-52.11q-10.42-9.12-10.42-22.14 0-13.03 9.77-22.8 9.77-9.77 22.8-9.77 13.02 0 22.14 10.43L1024.01 485.95 895.03 614.93q-10.42 9.12-22.79 9.12-12.38 0-22.15-9.12-9.77-9.12-9.77-22.14 0-13.02 10.42-23.45l52.11-52.11z m-781.68-63.84H371.31v63.84H121.17l53.42 52.11Q185.01 579.75 185.01 592.77t-10.43 22.14q-10.42 9.12-22.8 9.12t-21.5-9.12L0 485.93l130.28-128.97q9.12-10.43 21.5-10.43t22.8 9.77Q185.01 366.07 185.01 379.1q0 13.02-11.73 22.14l-52.11 52.11z m839 373.91H1024.01v84.68q0 37.78-24.75 61.23-24.75 23.45-59.92 24.75H644.91q-36.48-1.3-59.93-24.75-23.45-23.45-24.76-61.23V85.98q1.31-37.78 24.76-61.23Q608.43 1.3 644.91 0h294.43q35.17 1.3 59.92 24.75T1024.01 85.98v84.69h-63.84V85.98q0-9.11-5.86-15.63-5.86-6.52-14.98-6.52H644.9q-9.12 0-14.99 5.86-5.87 5.86-5.87 16.28v825.98q1.3 20.84 20.85 22.15h294.43q7.81 0 14.32-5.87 6.51-5.87 6.51-16.28v-84.68zM0.01 827.28h63.84v84.68q1.3 20.84 20.84 22.15h294.43q7.82 0 14.33-7.17 6.51-7.16 6.51-14.98V85.98q-1.3-20.84-20.85-22.14H84.68q-9.12 0-14.98 7.16-5.86 7.17-5.86 14.98v87.29H0V85.98q0-37.78 24.1-61.23Q48.2 1.3 84.68 0H379.11q35.18 1.3 59.28 24.75t25.41 61.23v825.98q-1.31 37.78-25.41 61.23-24.1 23.45-59.28 24.75H84.68q-36.48-1.3-60.58-24.75t-24.1-61.23v-84.68z"/>
</svg>