<?xml version="1.0" encoding="UTF-8"?>
<svg width="195px" height="181px" viewBox="0 0 195 181" version="1.1" xmlns="http://www.w3.org/2000/svg" xmlns:xlink="http://www.w3.org/1999/xlink">
    <title>standard-active</title>
    <g id="Page-1" stroke="none" stroke-width="1" fill="none" fill-rule="evenodd">
        <g id="standard-active" fill="#017BA8" fill-rule="nonzero">
            <path d="M178.220313,91.3463541 L178.220313,164.513021 L118.911979,164.513021 L118.911979,91.3463541 L178.220313,91.3463541 M185.828646,75.1630209 L111.520313,75.1630209 C106.753646,75.1630209 102.895313,79.0213543 102.895313,83.7880209 L102.895313,172.063021 C102.895313,176.821354 106.753646,180.688021 111.520313,180.688021 L185.828646,180.688021 C190.569306,180.655958 194.395313,176.803789 194.395313,172.063021 L194.395313,83.7880209 C194.395313,79.0463543 190.561979,75.1963543 185.828646,75.1630209 L185.828646,75.1630209 Z M178.220313,16.3296875 L178.220313,47.5546875 L118.911979,47.5546875 L118.911979,16.3380209 L178.220313,16.3380209 M185.828646,0.1546875 L111.520313,0.1546875 C106.753646,0.1546875 102.895313,4.0213541 102.895313,8.7880209 L102.895313,55.0963541 C102.895313,59.8630207 106.753646,63.7213541 111.520313,63.7213541 L185.828646,63.7213541 C190.561979,63.7213541 194.395313,59.8880207 194.395313,55.1463541 L194.395313,8.7880209 C194.395313,4.0380209 190.561979,0.188020898 185.828646,0.1546875 Z M75.0703125,16.3463541 L75.0703125,89.5130209 L16.1869791,89.5130209 L16.1869791,16.3463541 L75.5036459,16.3463541 M83.0536459,0.163020898 L8.3119791,0.163020898 C3.6786457,0.338020898 0.0119791016,4.1546875 0.0119791016,8.7963541 L0.0119791016,97.0630209 C0.0119791016,101.813021 3.8453125,105.663021 8.5869791,105.688021 L82.6203125,105.688021 C87.3869791,105.688021 91.2453125,101.829688 91.2453125,97.0630209 L91.2453125,8.7880209 C91.2453125,4.0213543 87.3869791,0.1546875 82.6203125,0.1546875 L83.0536459,0.1546875 L83.0536459,0.163020898 Z M75.0703125,133.563021 L75.0703125,164.779687 L16.1869791,164.779687 L16.1869791,133.563021 L75.5036459,133.563021 M83.0536459,117.379688 L8.3119791,117.379688 C3.76666015,117.524135 0.124590112,121.191802 0.0119791016,125.738021 L0.0119791016,172.063021 C0.0119791016,176.804687 3.8453125,180.654687 8.5869791,180.688021 L82.6203125,180.688021 C87.3869791,180.688021 91.2453125,176.821354 91.2453125,172.063021 L91.2453125,125.738021 C91.2453125,120.979688 87.3869791,117.113021 82.6203125,117.113021 L83.0536459,117.379688 Z" id="Shape"></path>
        </g>
    </g>
</svg>