<?xml version="1.0" encoding="UTF-8"?>
<svg width="223px" height="140px" viewBox="0 0 223 140" version="1.1" xmlns="http://www.w3.org/2000/svg" xmlns:xlink="http://www.w3.org/1999/xlink">
    <title>string</title>
    <g id="Page-1" stroke="none" stroke-width="1" fill="none" fill-rule="evenodd">
        <g id="string" fill="#017BA8" fill-rule="nonzero">
            <path d="M210.961328,79.1948297 C205.775,79.1948297 201.55332,81.5433543 198.296875,86.2378545 C195.039453,90.9323548 193.412109,97.1890547 193.412109,105.00719 C193.412109,112.705018 194.947461,118.729261 198.018945,123.081959 C201.09043,127.433637 205.23457,129.609858 210.452148,129.609858 C214.86543,129.609858 219.033203,127.715796 222.953516,123.927417 L222.953516,134.808269 C219.033203,137.870985 214.309766,139.402344 208.784961,139.402344 C201.375977,139.402344 195.417773,136.299865 190.911328,130.093887 C186.404102,123.88791 184.150977,115.848279 184.150977,105.973974 C184.150977,95.0128334 186.582422,86.1771915 191.444336,79.4673034 C196.30625,72.7574153 202.811523,69.4023438 210.961328,69.4023438 C215.652539,69.4023438 219.66582,70.4904544 223,72.6669305 L223,84.3945151 C219.387891,80.9280582 215.374805,79.1948297 210.961328,79.1948297 L210.961328,79.1948297 Z M155.16543,139.402344 C148.497852,139.402344 143.418945,135.645071 139.931055,128.12948 L139.746094,128.12948 L139.746094,137.792569 L130.670898,137.792569 L130.670898,36.4023438 L139.746094,36.4023438 L139.746094,81.1206055 L139.931055,81.1206055 C143.944336,72.1613359 149.80957,67.6801342 157.526758,67.6801342 C163.94668,67.6801342 169.048633,70.7053828 172.830469,76.7545742 C176.611328,82.8037657 178.502148,91.0717513 178.502148,101.559315 C178.502148,113.12128 176.379883,122.318986 172.135352,129.151911 C167.890625,135.986404 162.233984,139.402344 155.16543,139.402344 L155.16543,139.402344 Z M165.398437,83.8560403 C162.866406,79.5541894 159.408984,77.4023438 155.025977,77.4023438 C150.58125,77.4023438 146.915234,79.5436733 144.029492,83.8252809 C141.141992,88.1068884 139.699609,93.5515705 139.699609,100.160904 L139.699609,109.513086 C139.699609,115.083172 141.042383,119.790942 143.72793,123.634556 C146.413477,127.480537 149.778125,129.402344 153.822656,129.402344 C158.638086,129.402344 162.403711,126.908464 165.120703,121.920967 C167.836719,116.931892 169.195508,110.032841 169.195508,101.220659 C169.195508,93.9474995 167.929492,88.1581541 165.398437,83.8560403 L165.398437,83.8560403 Z M91.4724002,100.424023 L33.6353937,100.424023 L20.2736508,138.198437 L0.45703125,138.198437 L53.3615524,0.1984375 L72.5509341,0.1984375 L125.457031,138.198437 L105.638836,138.198437 L91.4724002,100.424023 Z M65.3074125,27.8205831 C64.6440446,25.979117 63.9206304,22.7720482 63.1384408,18.1984375 L62.6863466,18.1984375 C62.0213902,22.3556677 61.2687471,25.5639888 60.4265113,27.8205831 L39.4570312,85.1984375 L86.4570312,85.1984375 L65.3074125,27.8205831 L65.3074125,27.8205831 Z" id="Shape"></path>
        </g>
    </g>
</svg>