<?xml version="1.0" encoding="UTF-8"?>
<svg width="200px" height="200px" viewBox="0 0 200 200" version="1.1" xmlns="http://www.w3.org/2000/svg" xmlns:xlink="http://www.w3.org/1999/xlink">
    <title>time</title>
    <g id="Page-1" stroke="none" stroke-width="1" fill="none" fill-rule="evenodd">
        <g id="time" fill="#017BA8" fill-rule="nonzero">
            <path d="M100,0 C44.7714844,0 0,44.7714844 0,100 C0,155.228516 44.7714844,200 100,200 C155.228516,200 200,155.228516 200,100 C200,44.7714844 155.228516,0 100,0 Z M160.765625,160.759766 C129.545792,191.883428 79.7969392,194.216591 45.8012208,166.151462 C11.8055024,138.086332 4.67439235,88.7959753 29.32197,52.2465937 C53.9695477,15.6972121 102.339771,3.83494262 141.100507,24.8341273 C179.861242,45.833312 196.343574,92.8303835 179.189453,133.439453 C174.873996,143.652662 168.616991,152.931045 160.765625,160.759766 L160.765625,160.759766 Z" id="Shape"></path>
            <path d="M139.019531,104.425781 L101.431641,104.425781 L101.431641,55.7285156 C101.431641,51.8452635 98.2836428,48.6972656 94.4003906,48.6972656 C90.5171385,48.6972656 87.3691406,51.8452635 87.3691406,55.7285156 L87.3691406,111.457031 C87.3691406,113.321835 88.1099309,115.110261 89.4285461,116.428876 C90.7471612,117.747491 92.5355872,118.488281 94.4003906,118.488281 L139.019531,118.488281 C142.902783,118.488281 146.050781,115.340283 146.050781,111.457031 C146.050781,107.573779 142.902783,104.425781 139.019531,104.425781 Z" id="Path"></path>
        </g>
    </g>
</svg>