<?xml version="1.0" standalone="no"?>
<svg class="icon" width="200px" height="200.00px" viewBox="0 0 1024 1024" version="1.1"
     xmlns="http://www.w3.org/2000/svg">
    <path fill="#707070"
          d="M885 320H704V139a75 75 0 0 0-75-75H139a75 75 0 0 0-75 75v490a75 75 0 0 0 75 75h181v181a75 75 0 0 0 75 75h490a75 75 0 0 0 75-75V395a75 75 0 0 0-75-75zM139 632a3 3 0 0 1-3-3V139a3 3 0 0 1 3-3h490a3 3 0 0 1 3 3v181H395a75 75 0 0 0-75 75v237z m493-240v237a3 3 0 0 1-3 3H392V395a3 3 0 0 1 3-3z m256 493a3 3 0 0 1-3 3H395a3 3 0 0 1-3-3V704h237a75 75 0 0 0 75-75V392h181a3 3 0 0 1 3 3z"/>
</svg>