<?xml version="1.0" encoding="UTF-8"?>
<svg width="175px" height="169px" viewBox="0 0 175 169" version="1.1" xmlns="http://www.w3.org/2000/svg" xmlns:xlink="http://www.w3.org/1999/xlink">
    <title>upload</title>
    <g id="Page-1" stroke="none" stroke-width="1" fill="none" fill-rule="evenodd">
        <g id="upload" fill="#017BA8" fill-rule="nonzero">
            <path d="M160.078125,168.691406 L14.921875,168.691406 C6.69921875,168.691406 0,161.679688 0,153.066406 L0,100.546875 C0,96.2304688 3.49609375,92.734375 7.8125,92.734375 C12.1289062,92.734375 15.625,96.2304688 15.625,100.546875 L15.625,153.066406 L159.375,153.066406 L159.375,100.546875 C159.375,96.2304688 162.871094,92.734375 167.1875,92.734375 C171.503906,92.734375 175,96.2304688 175,100.546875 L175,153.066406 C175,161.679688 168.300781,168.691406 160.078125,168.691406 L160.078125,168.691406 Z" id="Path"></path>
            <path d="M87.5,133.046875 C83.1835938,133.046875 79.6875,129.550781 79.6875,125.234375 L79.6875,8.125 C79.6875,3.80859375 83.1835938,0.3125 87.5,0.3125 C91.8164062,0.3125 95.3125,3.80859375 95.3125,8.125 L95.3125,125.234375 C95.3125,129.550781 91.8164062,133.046875 87.5,133.046875 Z" id="Path"></path>
            <path d="M50,53.3007813 C48.0078125,53.3007813 45.9960938,52.5390625 44.4726562,51.015625 C41.4257812,47.96875 41.4257812,43.0273438 44.4726562,39.9609375 L81.5625,2.890625 C82.4414062,2.01171875 84.2773438,0.17578125 87.5,0.17578125 C89.5703125,0.17578125 91.5625,0.99609375 93.0273437,2.4609375 L130.527344,39.9609375 C133.574219,43.0078125 133.574219,47.9492188 130.527344,51.015625 C127.480469,54.0820313 122.539062,54.0625 119.472656,51.015625 L87.5,19.0429688 L55.5273438,51.015625 C54.0039062,52.5390625 51.9921875,53.3007813 50,53.3007813 Z" id="Path"></path>
        </g>
    </g>
</svg>