<?xml version="1.0" encoding="UTF-8"?>
<svg width="201px" height="134px" viewBox="0 0 201 134" version="1.1" xmlns="http://www.w3.org/2000/svg" xmlns:xlink="http://www.w3.org/1999/xlink">
    <title>vision</title>
    <g id="Page-1" stroke="none" stroke-width="1" fill="none" fill-rule="evenodd">
        <g id="vision" fill="#017BA8" fill-rule="nonzero">
            <path d="M99.9349382,0 C56.2134027,0 14.1574496,27.6903058 0,66.6232921 C14.1574496,105.556278 56.2134027,133.246584 99.9349382,133.246584 C143.461288,133.246584 185.920625,105.556278 200.065062,66.6232921 C185.712427,27.6903058 143.461288,0 99.9349382,0 Z M99.9349382,108.26285 C77.0331815,108.26285 58.2953806,89.5250488 58.2953806,66.6232921 C58.2953806,43.7215355 77.0331815,24.9837345 99.9349382,24.9837345 C122.836695,24.9837345 141.574496,43.7215355 141.574496,66.6232921 C141.574496,89.5250488 122.836695,108.26285 99.9349382,108.26285 Z M124.918673,66.6232921 C124.918673,80.4214277 113.733074,91.6070267 99.9349382,91.6070267 C86.1368026,91.6070267 74.9512036,80.4214277 74.9512036,66.6232921 C74.9512036,52.8251565 86.1368026,41.6395576 99.9349382,41.6395576 C113.718237,41.6753121 124.882918,52.8399937 124.918673,66.6232921 Z" id="Shape"></path>
        </g>
    </g>
</svg>