<?xml version="1.0" encoding="UTF-8"?>
<svg width="3607px" height="1228px" viewBox="0 0 3607 1228" version="1.1" xmlns="http://www.w3.org/2000/svg" xmlns:xlink="http://www.w3.org/1999/xlink">
    <title>kayle-logo</title>
    <g id="kayle-logo" stroke="none" stroke-width="1" fill="none" fill-rule="evenodd">
        <g id="Group" transform="translate(174.000000, 97.000000)" fill-rule="nonzero">
            <path d="M483.692376,691.868607 L540.472563,691.868607 L540.472563,537.001945 L683.382873,537.001945 L683.382873,481.924022 L540.472563,481.924022 L540.472563,327.057361 L483.692376,327.057361 L483.692376,481.924022 L342.595107,481.924022 L342.595107,537.001945 L483.692376,537.001945 L483.692376,691.868607 Z M220.417457,915.593337 L268.601694,915.593337 L268.601694,777.919862 L395.94118,777.919862 L395.94118,734.894234 L268.601694,734.894234 L268.601694,595.514239 L220.417457,595.514239 L220.417457,734.894234 L93.0779708,734.894234 L93.0779708,777.919862 L220.417457,777.919862 L220.417457,915.593337 Z M755.563245,418.185512 L803.747483,418.185512 L803.747483,280.597363 L932.79336,280.597363 L932.79336,239.278255 L803.747483,239.278255 L803.747483,99.8982597 L755.563245,99.8982597 L755.563245,239.278255 L628.223759,239.278255 L628.223759,280.597363 L755.563245,280.597363 L755.563245,418.185512 Z M492.288325,1024 L533.583006,1024 L533.583006,925.875118 L621.355532,925.875118 L621.355532,889.782227 L533.583006,889.782227 L533.583006,791.657345 L492.288325,791.657345 L492.288325,889.782227 L406.26485,889.782227 L406.26485,925.875118 L492.288325,925.875118 L492.288325,1024 Z M222.145178,418.185512 L266.937962,418.185512 L266.937962,278.869512 L396.005169,278.869512 L396.005169,239.278255 L266.788653,239.278255 L266.788653,99.8982597 L221.995869,99.8982597 L221.995869,239.278255 L93.0779708,239.278255 L93.0779708,278.869512 L222.145178,278.869512 L222.145178,418.185512 Z M895.42338,624.75972 L936.718061,624.75972 L936.718061,528.384021 L1024,528.384021 L1024,490.541947 L936.718061,490.541947 L936.718061,394.166248 L895.42338,394.166248 L895.42338,490.541947 L809.399905,490.541947 L809.399905,528.384021 L895.42338,528.384021 L895.42338,624.75972 Z" id="Shape" fill="#484848"></path>
            <polygon id="Path" fill="#2DA7C9" points="755.460749 915.534137 803.6671 915.534137 803.6671 777.857832 932.772203 777.857832 932.772203 734.83132 803.6671 734.83132 803.6671 595.448461 755.460749 595.448461 755.460749 734.83132 628.062821 734.83132 628.062821 777.857832 755.460749 777.857832"></polygon>
            <path d="M620.519805,123.916216 L620.519805,94.6653326 L534.499981,94.6653326 L534.499981,0 L503.537962,0 L503.537962,94.6653326 L417.539461,94.6653326 L417.539461,123.916216 L503.537962,123.916216 L503.537962,218.581549 L534.499981,218.581549 L534.499981,123.916216 L620.519805,123.916216 Z M85.5293794,617.895582 L116.491399,617.895582 L116.491399,523.23025 L202.575194,523.23025 L202.575194,493.979366 L116.491399,493.979366 L116.491399,401.10621 L85.5293794,401.10621 L85.5293794,494.043372 L0,494.043372 L0,525.022426 L85.5293794,524.851743 L85.5293794,617.895582 Z" id="Shape" fill="#2DA7C9"></path>
        </g>
        <path d="M1528.6,911 L1528.6,775.8 L1573.4,731 L1678.2,911 L1783,911 C1771.8,892.866667 1760.06667,873.4 1747.8,852.6 C1735.53333,831.8 1723.13333,810.733333 1710.6,789.4 C1698.06667,768.066667 1685.53333,746.866667 1673,725.8 C1660.46667,704.733333 1648.6,684.866667 1637.4,666.2 L1637.4,666.2 L1789.4,513.4 L1676.6,513.4 C1652.6,536.866667 1628.06667,560.866667 1603,585.4 C1577.93333,609.933333 1553.13333,634.2 1528.6,658.2 L1528.6,658.2 L1528.6,366.2 L1437.4,366.2 L1437.4,911 L1528.6,911 Z M2133.4,918.2 C2142.46667,918.2 2151,917.4 2159,915.8 C2167,914.2 2177.4,911.266667 2190.2,907 L2190.2,907 L2190.2,831 C2179.53333,833.666667 2171,836.066667 2164.6,838.2 C2158.2,840.333333 2154.46667,841.4 2153.4,841.4 C2151.26667,841.4 2149.4,839.666667 2147.8,836.2 C2146.2,832.733333 2145.4,828.866667 2145.4,824.6 L2145.4,824.6 L2145.4,630.2 C2145.4,607.8 2140.86667,588.866667 2131.8,573.4 C2122.73333,557.933333 2110.73333,545.133333 2095.8,535 C2080.86667,524.866667 2063.8,517.533333 2044.6,513 C2025.4,508.466667 2005.4,506.2 1984.6,506.2 C1965.93333,506.2 1947.26667,508.866667 1928.6,514.2 C1909.93333,519.533333 1893,527.666667 1877.8,538.6 C1862.6,549.533333 1849.93333,563.533333 1839.8,580.6 C1829.66667,597.666667 1823.8,617.933333 1822.2,641.4 L1822.2,641.4 L1915,641.4 C1918.2,621.133333 1926.06667,606.6 1938.6,597.8 C1951.13333,589 1965.93333,584.6 1983,584.6 C2005.4,584.6 2022.73333,588.066667 2035,595 C2047.26667,601.933333 2053.4,613.666667 2053.4,630.2 C2053.4,635.533333 2051.13333,640.333333 2046.6,644.6 C2042.06667,648.866667 2035.93333,652.733333 2028.2,656.2 C2020.46667,659.666667 2011.66667,662.866667 2001.8,665.8 C1991.93333,668.733333 1981.4,671.8 1970.2,675 C1952.06667,679.8 1933.66667,685.266667 1915,691.4 C1896.33333,697.533333 1879.4,705.133333 1864.2,714.2 C1849,723.266667 1836.6,734.733333 1827,748.6 C1817.4,762.466667 1812.6,779.533333 1812.6,799.8 C1812.6,817.933333 1815.93333,834.2 1822.6,848.6 C1829.26667,863 1838.33333,875.4 1849.8,885.8 C1861.26667,896.2 1874.86667,904.2 1890.6,909.8 C1906.33333,915.4 1923,918.2 1940.6,918.2 C1961.93333,918.2 1983.13333,914.866667 2004.2,908.2 C2025.26667,901.533333 2045.93333,889.133333 2066.2,871 C2072.06667,888.066667 2080.86667,900.2 2092.6,907.4 C2104.33333,914.6 2117.93333,918.2 2133.4,918.2 Z M1948.6,841.4 C1937.4,841.4 1927.13333,837.933333 1917.8,831 C1908.46667,824.066667 1903.8,812.6 1903.8,796.6 C1903.8,789.666667 1906.06667,783.533333 1910.6,778.2 C1915.13333,772.866667 1921,768.2 1928.2,764.2 C1935.4,760.2 1943.66667,756.6 1953,753.4 C1962.33333,750.2 1972.06667,747 1982.2,743.8 L1982.2,743.8 L1988.6,742.2 C2000.33333,739 2011.66667,735.533333 2022.6,731.8 C2033.53333,728.066667 2043.8,724.066667 2053.4,719.8 L2053.4,719.8 L2053.4,768.6 C2039,792.6 2022.46667,810.733333 2003.8,823 C1985.13333,835.266667 1966.73333,841.4 1948.6,841.4 Z M2315,1071.8 C2333.66667,1071.8 2352.6,1065 2371.8,1051.4 C2391,1037.8 2406.2,1015 2417.4,983 L2417.4,983 L2583,513.4 L2487,513.4 C2473.13333,555 2458.46667,597.666667 2443,641.4 C2427.53333,685.133333 2412.33333,728.6 2397.4,771.8 L2397.4,771.8 L2307,513.4 L2209.4,513.4 L2352.6,900.6 C2341.93333,933.666667 2333.4,957.8 2327,973 C2320.6,988.2 2314.2,995.8 2307.8,995.8 C2306.2,995.8 2303.4,995.266667 2299.4,994.2 C2295.4,993.133333 2291,991.666667 2286.2,989.8 C2281.4,987.933333 2276.33333,985.933333 2271,983.8 C2265.66667,981.666667 2260.86667,979.8 2256.6,978.2 L2256.6,978.2 L2256.6,1059.8 C2269.4,1064.6 2280.33333,1067.8 2289.4,1069.4 C2298.46667,1071 2307,1071.8 2315,1071.8 Z M2710.2,911 L2710.2,366.2 L2619,366.2 L2619,911 L2710.2,911 Z M2949.4,918.2 C2969.66667,918.2 2989.26667,914.866667 3008.2,908.2 C3027.13333,901.533333 3044.46667,891.666667 3060.2,878.6 C3075.93333,865.533333 3089.53333,849.666667 3101,831 C3112.46667,812.333333 3120.6,791 3125.4,767 L3125.4,767 L3039.8,767 C3022.73333,816.6 2992.6,841.4 2949.4,841.4 C2937.66667,841.4 2926.6,838.466667 2916.2,832.6 C2905.8,826.733333 2896.6,818.866667 2888.6,809 C2880.6,799.133333 2873.8,787.933333 2868.2,775.4 C2862.6,762.866667 2858.73333,749.933333 2856.6,736.6 L2856.6,736.6 L3130.2,736.6 L3130.2,700.6 C3130.2,672.866667 3125.93333,647.133333 3117.4,623.4 C3108.86667,599.666667 3096.73333,579.133333 3081,561.8 C3065.26667,544.466667 3046.2,530.866667 3023.8,521 C3001.4,511.133333 2976.33333,506.2 2948.6,506.2 C2919.8,506.2 2893.93333,511.666667 2871,522.6 C2848.06667,533.533333 2828.46667,548.2 2812.2,566.6 C2795.93333,585 2783.4,606.2 2774.6,630.2 C2765.8,654.2 2761.4,679.533333 2761.4,706.2 C2761.4,735 2765.8,762.2 2774.6,787.8 C2783.4,813.4 2796.06667,835.8 2812.6,855 C2829.13333,874.2 2848.86667,889.533333 2871.8,901 C2894.73333,912.466667 2920.6,918.2 2949.4,918.2 Z M3035,665.4 L2857.4,665.4 C2859.53333,654.2 2863.13333,643.8 2868.2,634.2 C2873.26667,624.6 2879.53333,616.066667 2887,608.6 C2894.46667,601.133333 2903.13333,595.266667 2913,591 C2922.86667,586.733333 2933.4,584.6 2944.6,584.6 C2970.2,584.6 2990.86667,592.066667 3006.6,607 C3022.33333,621.933333 3031.8,641.4 3035,665.4 L3035,665.4 Z" id="kayle" fill="#484848" fill-rule="nonzero"></path>
    </g>
</svg>