<svg width="198" height="198" viewBox="0 0 198 198" fill="none" xmlns="http://www.w3.org/2000/svg">
<g clip-path="url(#clip0_12_16)">
<circle cx="99" cy="99" r="99" fill="#00A587"/>
<path d="M129.811 96.7722C131.239 107.951 132.564 118.446 133.94 128.931C134.103 130.187 133.842 130.63 132.432 130.7C123.942 131.121 123.947 131.155 120.878 123.441C119.6 120.232 118.355 117.01 116.994 113.832C116.694 113.31 116.584 112.703 116.68 112.112C116.777 111.52 117.074 110.978 117.525 110.573C121.541 106.196 125.453 101.7 129.811 96.7722Z" fill="white"/>
<path d="M79.9077 106.141C81.1236 112.295 82.3232 118.078 83.3794 123.888C83.7054 125.686 85.1724 127.971 83.9173 129.187C82.8351 130.231 80.4325 128.753 78.5858 128.82C73.6797 129.003 71.3962 126.74 70.5991 121.99C70.1313 119.202 69.9243 117.27 72.2665 115.111C75.0006 112.279 77.5526 109.284 79.9077 106.141V106.141Z" fill="white"/>
<path d="M93.7609 117.365C93.7609 113.909 93.7071 110.453 93.787 106.999C93.8179 105.642 93.4333 105.185 91.9647 105.137C81.946 104.811 71.9295 104.417 61.9152 103.953C60.3423 103.881 59.7213 104.319 59.3872 105.845C57.842 112.914 56.0882 119.941 54.5788 127.017C54.1551 129.004 53.3825 129.737 51.2652 129.511C48.9159 129.272 46.5509 129.219 44.1929 129.351C42.4162 129.439 42.074 128.712 42.1 127.193C42.2532 116.579 42.4798 105.965 42.3755 95.3546C42.3563 92.0895 43.4672 88.9147 45.5262 86.3502C51.068 78.7905 56.406 71.0949 61.775 63.4184C62.0646 62.8928 62.5204 62.4737 63.0736 62.2244C63.6269 61.9751 64.2477 61.909 64.8425 62.0361C84.8614 64.1384 104.888 66.1751 124.922 68.1462C126.175 68.2937 127.372 68.7427 128.405 69.4534C140.327 77.0578 152.227 84.6895 164.208 92.2011C166.001 93.3211 166.05 93.9611 164.327 94.9738C163.956 95.1705 163.625 95.4318 163.349 95.745C159.899 100.121 155.852 99.924 150.962 97.9849C145.052 95.6474 138.819 94.0971 132.759 92.11C132.182 91.8805 131.557 91.7935 130.938 91.8569C130.319 91.9202 129.725 92.1318 129.209 92.4731C123.634 95.8714 118.034 99.228 112.409 102.543C111.902 102.809 111.47 103.193 111.148 103.661C110.827 104.129 110.627 104.667 110.566 105.228C109.332 112.523 107.92 119.787 106.786 127.102C106.46 129.198 105.699 129.862 103.576 129.716C100.881 129.56 98.1793 129.556 95.4837 129.703C93.8848 129.774 93.4756 129.224 93.5278 127.728C93.6321 124.273 93.5604 120.814 93.5604 117.358L93.7609 117.365Z" fill="white"/>
</g>
<defs>
<clipPath id="clip0_12_16">
<rect width="198" height="198" fill="white"/>
</clipPath>
</defs>
</svg>
