<?xml version="1.0" encoding="UTF-8"?>
<svg width="700px" height="700px" viewBox="0 0 700 700" version="1.1" xmlns="http://www.w3.org/2000/svg" xmlns:xlink="http://www.w3.org/1999/xlink">
    <title>spotrix</title>
    <g id="spotrix" stroke="none" stroke-width="1" fill="none" fill-rule="evenodd">
        <path d="M611.165977,93.9384094 L313.389732,93.9384094 C280.465506,101.558301 257.106317,108.214371 243.312163,113.906621 C211.193612,127.160556 185.15622,145.654733 168.730992,162.227934 C152.495488,178.6097 124.807461,209.02047 108.924673,243.760377 C101.899945,259.125337 95.3167676,284.596182 89.1751419,320.172913 L89.1751419,605.938409 L363.109716,605.938409 C381.979358,604.981146 395.216068,603.863997 402.819847,602.586961 C412.172952,601.016131 423.376151,596.739033 428.486084,595.347941 C444.202103,591.069523 454.58475,582.954756 463.138222,579.100361 C497.204268,563.749402 519.062703,539.068087 534.993715,523.832308 C552.4851,507.104251 570.113603,483.956763 582.488035,451.353738 C587.64516,437.766214 593.48248,413.776992 599.999995,379.386073 L599.999995,289.552194 L390.543739,289.552194 L273.058372,406.498081 L468.417054,406.498081 C463.748565,417.783276 459.935445,425.703079 456.977691,430.257487 C447.688915,444.560532 436.699328,454.36366 428.486084,460.838101 C416.349919,470.404952 394.557796,479.962616 363.109716,489.511092 L205.711191,489.511092 L205.711191,320.172913 C215.077162,297.910828 222.447967,282.653158 227.823604,274.3999 C233.719833,265.347375 242.957818,256.080187 248.305841,250.86572 C255.475491,243.875116 263.409394,234.546953 276.37149,227.845861 C282.991007,224.423729 295.330421,220.202912 313.389732,215.183409 L499.326332,215.183409 L611.165977,93.9384094 Z" id="Path-7" fill="#007CAC" transform="translate(350.170560, 349.938409) scale(-1, -1) translate(-350.170560, -349.938409) "></path>
    </g>
</svg>